<svg xmlns="http://www.w3.org/2000/svg" viewBox="0 0 24 24"><path d="M12 3a.75.75 0 01-.75-.75V.75a.75.75 0 011.5 0v1.5A.75.75 0 0112 3zM1.5 12a.75.75 0 010-1.5H3A.75.75 0 013 12H1.5zm3.35-6.443a.747.747 0 01-.52-.209l-1.1-1.057A.752.752 0 013.75 3c.195 0 .379.074.52.209l1.1 1.057a.748.748 0 01.021 1.061.756.756 0 01-.541.23zM21 12a.75.75 0 010-1.5h1.5a.75.75 0 010 1.5H21zm-1.85-6.443a.751.751 0 01-.52-1.291l1.1-1.057a.747.747 0 011.061.021.751.751 0 01-.021 1.061l-1.1 1.057a.75.75 0 01-.52.209zM12 24a.75.75 0 01-.75-.75v-1.5h-.75a2.252 2.252 0 01-2.25-2.25v-1.758c-2.319-1.307-3.784-3.832-3.75-6.498a7.597 7.597 0 017.487-7.495c4.146.073 7.44 3.362 7.513 7.487.035 2.67-1.429 5.198-3.75 6.506V19.5a2.252 2.252 0 01-2.25 2.25h-.75v1.5A.75.75 0 0112 24zm-2.25-4.5c0 .414.336.75.75.75h3a.75.75 0 00.75-.75V18h-4.5v1.5zm5.153-3A5.895 5.895 0 0018 11.26a6.1 6.1 0 00-6.013-6.01A6.091 6.091 0 006 11.267 5.893 5.893 0 009.097 16.5h2.153v-2.689l-2.03-2.03a.747.747 0 010-1.061c.141-.142.33-.22.53-.22s.389.078.53.22L12 12.44l1.72-1.72a.744.744 0 011.06 0c.142.141.22.33.22.53s-.078.389-.22.53l-2.03 2.03v2.69h2.153z" fill="#984caa"/></svg>