<svg xmlns="http://www.w3.org/2000/svg" viewBox="0 0 24 24"><g fill="#119eda"><path d="M12 24c-1.241 0-2.25-1.009-2.25-2.25S10.759 19.5 12 19.5h1.5c.96 0 1.808.615 2.121 1.5h1.629a2.252 2.252 0 0 0 2.25-2.25c-.827 0-1.5-.673-1.5-1.5v-7.5c0-.814.653-1.479 1.462-1.5A7.487 7.487 0 0 0 12 1.5a7.487 7.487 0 0 0-7.462 6.75A1.503 1.503 0 0 1 6 9.75v7.5c0 .827-.673 1.5-1.5 1.5h-.75A3.754 3.754 0 0 1 0 15v-3a3.743 3.743 0 0 1 3.027-3.679A8.973 8.973 0 0 1 12 0a8.972 8.972 0 0 1 8.973 8.321A3.743 3.743 0 0 1 24 12v3a3.743 3.743 0 0 1-3 3.673v.077a3.754 3.754 0 0 1-3.75 3.75h-1.629A2.258 2.258 0 0 1 13.5 24H12zm0-3a.75.75 0 0 0 0 1.5h1.5a.75.75 0 0 0 0-1.5H12zm7.5-3.75h.75A2.252 2.252 0 0 0 22.5 15v-3a2.252 2.252 0 0 0-2.25-2.25h-.75v7.5zM3.75 9.75A2.252 2.252 0 0 0 1.5 12v3a2.252 2.252 0 0 0 2.25 2.25h.75v-7.5h-.75z"/><path d="M12 17.362a5.198 5.198 0 0 1-3.505-1.365c-.148-.135-.235-.319-.244-.52s.06-.392.195-.54a.75.75 0 0 1 1.059-.049c.688.627 1.575.972 2.495.972s1.807-.345 2.495-.972a.749.749 0 1 1 1.01 1.109A5.198 5.198 0 0 1 12 17.362zm-3-5.315a.75.75 0 0 1-.75-.75V9.985a.75.75 0 0 1 1.5 0v1.312a.75.75 0 0 1-.75.75zm6 0a.75.75 0 0 1-.75-.75V9.985a.75.75 0 0 1 1.5 0v1.312a.75.75 0 0 1-.75.75z"/></g></svg>