<svg xmlns="http://www.w3.org/2000/svg" viewBox="0 0 24 24"><g fill="#119eda"><path d="M15.113 22.268a3.733 3.733 0 01-1.522-.324L9.103 19.95a2.272 2.272 0 00-1.75-.033l-4.267 1.707a2.228 2.228 0 01-.833.161A2.239 2.239 0 01.162 20.37 2.226 2.226 0 010 19.533V6.265c0-.926.555-1.746 1.414-2.089l5.381-2.152a3.768 3.768 0 012.916.055l4.487 1.994a2.24 2.24 0 001.683.058l5.1-1.855a2.257 2.257 0 013.02 2.115v13.308c0 .942-.595 1.792-1.481 2.114l-6.125 2.228c-.413.15-.845.227-1.282.227zm-6.925-4.012c.523 0 1.05.111 1.524.322l4.488 1.994a2.223 2.223 0 001.683.058l6.125-2.228a.752.752 0 00.493-.705V4.39a.75.75 0 00-1.007-.705l-5.1 1.855a3.734 3.734 0 01-2.805-.097L9.102 3.449a2.267 2.267 0 00-1.75-.033l-5.38 2.152a.745.745 0 00-.472.696v13.269a.749.749 0 001.029.697l4.267-1.707c.442-.177.91-.267 1.392-.267z"/><path d="M12.375 12.748a.796.796 0 01-.13-.011 1.126 1.126 0 01-.983-.982.717.717 0 010-.262c.06-.513.469-.922.982-.982a.717.717 0 01.262-.001c.513.06.922.47.983.983a.796.796 0 010 .26c-.061.513-.47.923-.983.983a.639.639 0 01-.131.012zm-3 2.507a.796.796 0 01-.13-.011 1.126 1.126 0 01-.983-.983.726.726 0 01-.001-.262c.06-.513.47-.922.983-.982a.698.698 0 01.26 0c.513.06.923.469.983.982a.717.717 0 010 .262c-.06.513-.47.922-.983.983a.765.765 0 01-.129.011zm-3-2.25a.796.796 0 01-.13-.011 1.128 1.128 0 01-.983-.983.717.717 0 010-.262c.06-.513.47-.922.982-.982a.717.717 0 01.262 0c.513.06.922.47.982.982a.715.715 0 010 .261c-.061.513-.47.922-.983.983a.69.69 0 01-.13.012zm-2.25 3a.796.796 0 01-.13-.011 1.126 1.126 0 01-.983-.983.726.726 0 01-.001-.262c.06-.513.47-.922.983-.982a.698.698 0 01.26 0c.513.06.923.469.983.982a.717.717 0 010 .262c-.06.513-.47.922-.983.983a.765.765 0 01-.129.011zm16.125-2.507a.743.743 0 01-.53-.22L18 11.559l-1.72 1.72a.744.744 0 01-1.06 0 .752.752 0 010-1.061l1.72-1.72-1.72-1.72c-.142-.141-.22-.329-.22-.53s.078-.389.22-.53a.749.749 0 011.06 0L18 9.438l1.72-1.72a.744.744 0 011.06 0 .744.744 0 010 1.06l-1.72 1.72 1.72 1.72a.752.752 0 010 1.061.746.746 0 01-.53.219z"/></g></svg>