<svg xmlns="http://www.w3.org/2000/svg" viewBox="0 0 24 24"><g fill="#984caa"><path d="M4.5 9c-1.654 0-3-1.346-3-3s1.346-3 3-3 3 1.346 3 3-1.346 3-3 3zm0-4.5C3.673 4.5 3 5.173 3 6s.673 1.5 1.5 1.5S6 6.827 6 6s-.673-1.5-1.5-1.5zM3 22.5a.751.751 0 0 1-.744-.657L1.588 16.5H.75a.75.75 0 0 1-.75-.75V13.5C0 11.019 2.019 9 4.5 9a.75.75 0 0 1 0 1.5c-1.654 0-3 1.346-3 3V15h.75c.377 0 .697.282.744.657L3.662 21H6a.75.75 0 0 1 0 1.5H3zM19.5 9c-1.654 0-3-1.346-3-3s1.346-3 3-3 3 1.346 3 3-1.346 3-3 3zm0-4.5c-.827 0-1.5.673-1.5 1.5s.673 1.5 1.5 1.5S21 6.827 21 6s-.673-1.5-1.5-1.5zm-1.5 18a.75.75 0 0 1 0-1.5h2.338l.668-5.343A.751.751 0 0 1 21.75 15h.75v-1.5c0-1.654-1.346-3-3-3a.75.75 0 0 1 0-1.5c2.481 0 4.5 2.019 4.5 4.5v2.25a.75.75 0 0 1-.75.75h-.838l-.668 5.343A.751.751 0 0 1 21 22.5h-3zm-6-15c-2.068 0-3.75-1.682-3.75-3.75S9.932 0 12 0s3.75 1.682 3.75 3.75S14.068 7.5 12 7.5zm0-6c-1.241 0-2.25 1.009-2.25 2.25S10.759 6 12 6s2.25-1.009 2.25-2.25S13.241 1.5 12 1.5z"/><path d="M9.75 24a.747.747 0 0 1-.746-.675L8.321 16.5H6.75a.75.75 0 0 1-.75-.75V13.5c0-3.308 2.692-6 6-6s6 2.692 6 6v2.25a.75.75 0 0 1-.75.75h-1.571l-.683 6.825a.747.747 0 0 1-.746.675h-4.5zm3.821-1.5l.683-6.825A.747.747 0 0 1 15 15h1.5v-1.5c0-2.481-2.019-4.5-4.5-4.5a4.505 4.505 0 0 0-4.5 4.5V15H9c.387 0 .708.29.746.675l.682 6.825h3.143z"/></g></svg>