<svg xmlns="http://www.w3.org/2000/svg" viewBox="0 0 24 24"><g fill="#fff"><path d="M5.25 7.5C3.182 7.5 1.5 5.818 1.5 3.75S3.182 0 5.25 0 9 1.683 9 3.75 7.318 7.5 5.25 7.5zm0-6C4.009 1.5 3 2.51 3 3.75S4.009 6 5.25 6 7.5 4.991 7.5 3.75 6.491 1.5 5.25 1.5zM3 24a.747.747 0 0 1-.746-.675L1.571 16.5H.75a.75.75 0 0 1-.75-.75v-3C0 9.855 2.355 7.5 5.25 7.5s5.25 2.355 5.25 5.25v1.5a.75.75 0 0 1-1.5 0v-1.5C9 10.683 7.318 9 5.25 9S1.5 10.683 1.5 12.75V15h.75c.387 0 .708.29.746.675l.683 6.825h3.143l.607-6.075a.745.745 0 0 1 .828-.671.734.734 0 0 1 .498.271c.127.155.186.35.166.55l-.675 6.75A.747.747 0 0 1 7.5 24H3zm9.75-10.5a.75.75 0 0 1 0-1.5h9a.75.75 0 0 0 .75-.75v-9a.75.75 0 0 0-.75-.75h-10.5a.75.75 0 0 1 0-1.5h10.5C22.991 0 24 1.01 24 2.25v9a2.252 2.252 0 0 1-2.25 2.25h-9zm.501 8.25c-1.861 0-3.375-1.514-3.375-3.375S11.39 15 13.251 15s3.375 1.514 3.375 3.375-1.514 3.375-3.375 3.375zm0-5.25c-1.034 0-1.875.841-1.875 1.875s.841 1.875 1.875 1.875 1.875-.841 1.875-1.875-.841-1.875-1.875-1.875zm6.75 5.25c-1.861 0-3.375-1.514-3.375-3.375S18.14 15 20.001 15s3.375 1.514 3.375 3.375-1.514 3.375-3.375 3.375zm0-5.25c-1.034 0-1.875.841-1.875 1.875s.841 1.875 1.875 1.875 1.875-.841 1.875-1.875-.841-1.875-1.875-1.875z"/><path d="M23.25 24.001a.748.748 0 0 1-.571-.264 3.521 3.521 0 0 0-5.358 0 .75.75 0 0 1-.696.253.753.753 0 0 1-.696-.254 3.521 3.521 0 0 0-5.358-.001.748.748 0 1 1-1.141-.972 5.007 5.007 0 0 1 7.193-.456 5.007 5.007 0 0 1 3.779-1.291 4.984 4.984 0 0 1 3.42 1.749.746.746 0 0 1-.572 1.236zM12.75 10.5a.75.75 0 0 1 0-1.5H15V6a.75.75 0 0 1 1.5 0v3H18V3.75a.75.75 0 0 1 1.5 0V9h.75a.75.75 0 0 1 0 1.5h-7.5z"/></g></svg>