<svg xmlns="http://www.w3.org/2000/svg" viewBox="0 0 24 24"><path d="M8.25 24a.75.75 0 0 1-.75-.75v-3.136a3.722 3.722 0 0 0-.631-2.083l-1.143-1.715a.671.671 0 0 0-.579-.346.65.65 0 0 0-.333.093l-.031.02a.652.652 0 0 0-.225.81l1.333 2.222c.103.172.133.373.084.568s-.17.358-.342.461a.747.747 0 0 1-1.028-.257l-1.35-2.25c-.009-.014-.018-.032-.027-.049a2.152 2.152 0 0 1-.227-1.031L3 16.5v-3.75a.75.75 0 0 0-1.5 0v5.172c0 .848.292 1.68.822 2.343l2.014 2.517a.75.75 0 0 1-1.172.937L1.15 21.201A5.266 5.266 0 0 1 0 17.922V12.75c0-1.241 1.009-2.25 2.25-2.25s2.25 1.009 2.25 2.25v1.82a2.118 2.118 0 0 1 1.172-.036 2.135 2.135 0 0 1 1.322.98l1.123 1.684c.579.866.884 1.875.883 2.917v3.135a.75.75 0 0 1-.75.75zm12 0a.751.751 0 0 1-.585-1.218l2.014-2.517c.53-.662.822-1.494.822-2.342V12.75a.75.75 0 0 0-1.501 0v3.75a.493.493 0 0 1-.003.055 2.154 2.154 0 0 1-.257 1.087l-1.347 2.244a.754.754 0 0 1-1.03.257.743.743 0 0 1-.341-.461.744.744 0 0 1 .085-.568l1.333-2.222a.652.652 0 0 0-.23-.813l-.033-.02a.64.64 0 0 0-.486-.069.643.643 0 0 0-.4.296L17.13 18.03a3.728 3.728 0 0 0-.631 2.084v3.136a.75.75 0 0 1-1.499 0v-3.136a5.225 5.225 0 0 1 .884-2.917l1.141-1.714c.28-.468.746-.81 1.303-.949a2.118 2.118 0 0 1 1.172.036v-1.82c0-1.241 1.009-2.25 2.25-2.25S24 11.509 24 12.75v5.172a5.27 5.27 0 0 1-1.151 3.28l-2.014 2.517a.746.746 0 0 1-.585.281zM7.417 8.833a.742.742 0 0 1-.449-.15L3.3 5.933a.753.753 0 0 1 0-1.2l3.667-2.75a.752.752 0 0 1 .9 1.2L5 5.333l2.867 2.15a.75.75 0 0 1-.45 1.35zm9.166 0a.75.75 0 0 1-.45-1.35L19 5.333l-2.867-2.15a.75.75 0 0 1 .9-1.201l3.667 2.75a.753.753 0 0 1 0 1.2l-3.667 2.75a.741.741 0 0 1-.45.151zm-5.5 1.834a.75.75 0 0 1-.736-.898L12.181.602a.753.753 0 0 1 1.36-.268c.111.167.151.367.111.563l-1.834 9.167a.751.751 0 0 1-.735.603z" fill="#119eda"/></svg>