<svg xmlns="http://www.w3.org/2000/svg" viewBox="0 0 24 24"><path d="M3.75 24a.75.75 0 0 1-.586-.281L1.15 21.202A5.271 5.271 0 0 1 0 17.922V12.75c0-1.241 1.009-2.25 2.25-2.25s2.25 1.009 2.25 2.25v1.82a2.118 2.118 0 0 1 1.172-.036 2.135 2.135 0 0 1 1.322.98l1.123 1.684c.578.866.883 1.875.883 2.917v3a.75.75 0 0 1-1.5 0v-3c0-.744-.218-1.465-.631-2.083l-1.142-1.715a.671.671 0 0 0-.579-.346.65.65 0 0 0-.333.093l-.031.02a.652.652 0 0 0-.225.81l1.333 2.222c.103.172.133.373.084.568s-.17.358-.342.461a.747.747 0 0 1-1.028-.257l-1.35-2.25c-.009-.014-.018-.032-.027-.049a2.152 2.152 0 0 1-.227-1.031L3 16.5v-3.75a.75.75 0 0 0-1.5 0v5.172c0 .848.292 1.68.822 2.343l2.014 2.517A.75.75 0 0 1 3.75 24zm16.5 0a.751.751 0 0 1-.585-1.218l2.014-2.517c.53-.662.822-1.494.822-2.342V12.75a.75.75 0 0 0-1.501 0v3.75a.493.493 0 0 1-.003.055 2.154 2.154 0 0 1-.257 1.087l-1.347 2.244a.754.754 0 0 1-1.03.257.743.743 0 0 1-.341-.461.745.745 0 0 1 .085-.568l1.333-2.222a.652.652 0 0 0-.23-.813l-.033-.02a.64.64 0 0 0-.486-.069.643.643 0 0 0-.4.296L17.13 18.03a3.728 3.728 0 0 0-.631 2.084v3a.75.75 0 0 1-1.499 0v-3c0-1.041.305-2.05.883-2.916l1.142-1.714c.28-.468.746-.81 1.303-.949a2.118 2.118 0 0 1 1.172.036v-1.82a2.251 2.251 0 0 1 4.5-.001v5.172a5.27 5.27 0 0 1-1.151 3.28l-2.014 2.517a.746.746 0 0 1-.585.281zM12 16.072a.733.733 0 0 1-.373-.099l-4.5-2.572a.744.744 0 0 1-.351-.454A.747.747 0 0 1 7.5 12c.13 0 .258.034.371.099l3.378 1.931V8.042l-4.5-2.571V9.75a.75.75 0 0 1-1.5 0V4.179c0-.066.009-.132.026-.196l.025-.067a.716.716 0 0 1 .05-.112.685.685 0 0 1 .05-.07.537.537 0 0 1 .136-.14.554.554 0 0 1 .088-.064L11.628.099a.748.748 0 0 1 .744 0 64348.196 64348.196 0 0 0 6.033 3.45.645.645 0 0 1 .065.049.517.517 0 0 1 .136.143.636.636 0 0 1 .095.18.75.75 0 0 1 .048.256V9.75a.75.75 0 0 1-1.5 0V5.471l-4.5 2.571v5.987l3.378-1.931a.752.752 0 0 1 1.096.849.743.743 0 0 1-.352.454l-4.498 2.571a.713.713 0 0 1-.114.051.637.637 0 0 1-.061.023.77.77 0 0 1-.198.026zm0-9.329l4.488-2.564L12 1.614 7.512 4.179 12 6.743z" fill="#119eda"/></svg>