<svg xmlns="http://www.w3.org/2000/svg" viewBox="0 0 24 24"><path d="M11.997 23.998a.75.75 0 0 1-.75-.75v-4.134a4.785 4.785 0 0 1-3.554.089 4.815 4.815 0 0 1-2.552-2.174 6.043 6.043 0 0 1-3.845-3.269 5.951 5.951 0 0 1-.177-4.58 5.968 5.968 0 0 1 2.628-3.113 3.68 3.68 0 0 1 1.127-2.776A3.677 3.677 0 0 1 7.319 2.25c.367-.46.799-.863 1.287-1.198a5.94 5.94 0 0 1 4.482-.954 5.969 5.969 0 0 1 3.591 2.153c.191.007.373.027.552.061a3.729 3.729 0 0 1 3.017 3.756 5.975 5.975 0 0 1 3.001 5.179c-.001 2.664-1.839 5.067-4.395 5.78a4.825 4.825 0 0 1-4.219 2.469 4.833 4.833 0 0 1-1.887-.383v4.135a.752.752 0 0 1-.751.75zM7.454 3.748c-.578 0-1.124.221-1.537.621a2.187 2.187 0 0 0-.632 1.991.748.748 0 0 1-.424.82 4.459 4.459 0 0 0-2.334 2.521 4.455 4.455 0 0 0 .133 3.433 4.507 4.507 0 0 0 3.149 2.515c.23.049.426.205.525.418a3.31 3.31 0 0 0 1.876 1.728 3.295 3.295 0 0 0 3.038-.386v-4.692a4.277 4.277 0 0 1-3.749-4.514.753.753 0 0 1 .75-.705l.041.001a.745.745 0 0 1 .705.794 2.789 2.789 0 0 0 2.251 2.909V8.248a.75.75 0 0 1 1.5 0v5.958c2.044-.223 3-1.41 3-3.708a.75.75 0 0 1 1.5 0c0 3.113-1.594 4.952-4.5 5.213v1.694a3.298 3.298 0 0 0 1.892.589 3.32 3.32 0 0 0 3.021-1.929c.1-.213.296-.37.525-.418a4.521 4.521 0 0 0 3.562-4.398 4.505 4.505 0 0 0-2.614-4.069.75.75 0 0 1-.424-.82 2.187 2.187 0 0 0-.347-1.651 2.187 2.187 0 0 0-1.812-.961h-.04a1.719 1.719 0 0 1-.201.02.749.749 0 0 1-.615-.325 4.463 4.463 0 0 0-2.881-1.87 4.454 4.454 0 0 0-3.359.715c-.452.312-.841.7-1.153 1.154a.75.75 0 0 1-.62.325l-.043-.001a1.88 1.88 0 0 1-.138-.015.34.34 0 0 0-.045-.003z" fill="#984caa"/></svg>