<?xml version="1.0" encoding="utf-8"?>
<!-- Generator: Adobe Illustrator 22.1.0, SVG Export Plug-In . SVG Version: 6.00 Build 0)  -->
<svg version="1.1" id="Layer_1" xmlns="http://www.w3.org/2000/svg" xmlns:xlink="http://www.w3.org/1999/xlink" x="0px" y="0px"
	 viewBox="0 0 24 24" style="enable-background:new 0 0 24 24;" xml:space="preserve">
<title>buildings-2</title>
<g>
	<path d="M5.25,9C4.836,9,4.5,8.664,4.5,8.25S4.836,7.5,5.25,7.5h4.5c0.414,0,0.75,0.336,0.75,0.75S10.164,9,9.75,9H5.25z"/>
	<path d="M5.25,12c-0.414,0-0.75-0.336-0.75-0.75s0.336-0.75,0.75-0.75h4.5c0.414,0,0.75,0.336,0.75,0.75S10.164,12,9.75,12H5.25z"
		/>
	<path d="M5.25,15c-0.414,0-0.75-0.336-0.75-0.75s0.336-0.75,0.75-0.75h4.5c0.414,0,0.75,0.336,0.75,0.75S10.164,15,9.75,15H5.25z"
		/>
	<path d="M5.25,18c-0.414,0-0.75-0.336-0.75-0.75s0.336-0.75,0.75-0.75h4.5c0.414,0,0.75,0.336,0.75,0.75S10.164,18,9.75,18H5.25z"
		/>
	<path d="M5.25,21c-0.414,0-0.75-0.336-0.75-0.75s0.336-0.75,0.75-0.75h4.5c0.414,0,0.75,0.336,0.75,0.75S10.164,21,9.75,21H5.25z"
		/>
	<path d="M0.75,24C0.336,24,0,23.664,0,23.25s0.336-0.75,0.75-0.75H1.5V5.75c0-0.689,0.561-1.25,1.25-1.25H4.5V2.75
		c0-0.689,0.561-1.25,1.25-1.25H7.5V0.75C7.5,0.336,7.836,0,8.25,0S9,0.336,9,0.75V1.5h0.25c0.689,0,1.25,0.561,1.25,1.25V4.5h1.75
		c0.689,0,1.25,0.561,1.25,1.25V22.5H15v-12C15,9.673,15.673,9,16.5,9h3V8.25c0-0.414,0.336-0.75,0.75-0.75S21,7.836,21,8.25V9
		c0.827,0,1.5,0.673,1.5,1.5v12h0.75c0.414,0,0.75,0.336,0.75,0.75S23.664,24,23.25,24H0.75z M21,22.5v-12h-4.5l0,12H21z M12,22.5V6
		H3v16.5H12z M9,4.5V3H6v1.5H9z"/>
</g>
</svg>
