<?xml version="1.0" encoding="UTF-8" standalone="no"?>
<!-- Generator: Adobe Illustrator 22.1.0, SVG Export Plug-In . SVG Version: 6.00 Build 0)  -->

<svg
   xmlns:dc="http://purl.org/dc/elements/1.1/"
   xmlns:cc="http://creativecommons.org/ns#"
   xmlns:rdf="http://www.w3.org/1999/02/22-rdf-syntax-ns#"
   xmlns:svg="http://www.w3.org/2000/svg"
   xmlns="http://www.w3.org/2000/svg"
   xmlns:sodipodi="http://sodipodi.sourceforge.net/DTD/sodipodi-0.dtd"
   xmlns:inkscape="http://www.inkscape.org/namespaces/inkscape"
   version="1.1"
   id="Layer_1"
   x="0px"
   y="0px"
   viewBox="0 0 24 24"
   style="enable-background:new 0 0 24 24;"
   xml:space="preserve"
   sodipodi:docname="bulb.svg"
   inkscape:version="0.92.4 (5da689c313, 2019-01-14)"><metadata
   id="metadata23"><rdf:RDF><cc:Work
       rdf:about=""><dc:format>image/svg+xml</dc:format><dc:type
         rdf:resource="http://purl.org/dc/dcmitype/StillImage" /></cc:Work></rdf:RDF></metadata><defs
   id="defs21" /><sodipodi:namedview
   pagecolor="#ffffff"
   bordercolor="#666666"
   borderopacity="1"
   objecttolerance="10"
   gridtolerance="10"
   guidetolerance="10"
   inkscape:pageopacity="0"
   inkscape:pageshadow="2"
   inkscape:window-width="1920"
   inkscape:window-height="1017"
   id="namedview19"
   showgrid="false"
   inkscape:zoom="9.8333333"
   inkscape:cx="12"
   inkscape:cy="12"
   inkscape:window-x="-8"
   inkscape:window-y="-8"
   inkscape:window-maximized="1"
   inkscape:current-layer="Layer_1" />
<title
   id="title2">bulb</title>
<g
   id="g16"
   style="fill:#984caa;fill-opacity:1">
	<path
   d="M12,3c-0.414,0-0.75-0.336-0.75-0.75v-1.5C11.25,0.336,11.586,0,12,0s0.75,0.336,0.75,0.75v1.5C12.75,2.664,12.414,3,12,3z   "
   id="path4"
   style="fill:#984caa;fill-opacity:1" />
	<path
   d="M1.5,12c-0.414,0-0.75-0.336-0.75-0.75S1.086,10.5,1.5,10.5H3c0.414,0,0.75,0.336,0.75,0.75S3.414,12,3,12H1.5z"
   id="path6"
   style="fill:#984caa;fill-opacity:1" />
	<path
   d="M4.85,5.557c-0.195,0-0.379-0.074-0.52-0.209l-1.1-1.057C2.932,4.004,2.923,3.528,3.209,3.23C3.35,3.084,3.547,3,3.75,3   C3.945,3,4.129,3.074,4.27,3.209l1.1,1.057C5.514,4.405,5.596,4.592,5.6,4.792c0.004,0.2-0.07,0.39-0.209,0.535   C5.25,5.473,5.053,5.557,4.85,5.557z"
   id="path8"
   style="fill:#984caa;fill-opacity:1" />
	<path
   d="M21,12c-0.414,0-0.75-0.336-0.75-0.75S20.586,10.5,21,10.5h1.5c0.414,0,0.75,0.336,0.75,0.75S22.914,12,22.5,12H21z"
   id="path10"
   style="fill:#984caa;fill-opacity:1" />
	<path
   d="M19.15,5.557c-0.203,0-0.4-0.084-0.541-0.23c-0.287-0.299-0.277-0.774,0.021-1.061l1.1-1.057   C19.871,3.074,20.055,3,20.25,3c0.203,0,0.4,0.084,0.541,0.23c0.287,0.299,0.277,0.774-0.021,1.061l-1.1,1.057   C19.529,5.483,19.344,5.557,19.15,5.557z"
   id="path12"
   style="fill:#984caa;fill-opacity:1" />
	<path
   d="M12,24c-0.414,0-0.75-0.336-0.75-0.75v-1.5H10.5c-1.241,0-2.25-1.009-2.25-2.25v-1.758   c-2.319-1.307-3.784-3.832-3.75-6.498c0.071-4.13,3.359-7.421,7.487-7.495c4.146,0.073,7.44,3.362,7.513,7.487   c0.035,2.67-1.429,5.198-3.75,6.506V19.5c0,1.241-1.009,2.25-2.25,2.25h-0.75v1.5C12.75,23.664,12.414,24,12,24z M9.75,19.5   c0,0.414,0.336,0.75,0.75,0.75h3c0.414,0,0.75-0.336,0.75-0.75V18h-4.5V19.5z M14.903,16.5c1.913-1.022,3.126-3.068,3.097-5.24   c-0.059-3.311-2.7-5.951-6.013-6.01C8.692,5.309,6.057,7.952,6,11.267c-0.028,2.167,1.185,4.212,3.097,5.233h2.153v-2.689   l-2.03-2.03C9.078,11.639,9,11.45,9,11.25s0.078-0.389,0.22-0.53c0.141-0.142,0.33-0.22,0.53-0.22s0.389,0.078,0.53,0.22l1.72,1.72   l1.72-1.72c0.142-0.142,0.33-0.22,0.53-0.22s0.389,0.078,0.53,0.22c0.142,0.141,0.22,0.33,0.22,0.53s-0.078,0.389-0.22,0.53   l-2.03,2.03V16.5H14.903z"
   id="path14"
   style="fill:#984caa;fill-opacity:1" />
</g>
</svg>