<?xml version="1.0" encoding="UTF-8" standalone="no"?>
<!-- Generator: Adobe Illustrator 22.1.0, SVG Export Plug-In . SVG Version: 6.00 Build 0)  -->

<svg
   xmlns:dc="http://purl.org/dc/elements/1.1/"
   xmlns:cc="http://creativecommons.org/ns#"
   xmlns:rdf="http://www.w3.org/1999/02/22-rdf-syntax-ns#"
   xmlns:svg="http://www.w3.org/2000/svg"
   xmlns="http://www.w3.org/2000/svg"
   xmlns:sodipodi="http://sodipodi.sourceforge.net/DTD/sodipodi-0.dtd"
   xmlns:inkscape="http://www.inkscape.org/namespaces/inkscape"
   version="1.1"
   id="Layer_1"
   x="0px"
   y="0px"
   viewBox="0 0 24 24"
   style="enable-background:new 0 0 24 24;"
   xml:space="preserve"
   sodipodi:docname="common-file-give-hand-2-blue.svg"
   inkscape:version="0.92.4 (5da689c313, 2019-01-14)"><metadata
   id="metadata15"><rdf:RDF><cc:Work
       rdf:about=""><dc:format>image/svg+xml</dc:format><dc:type
         rdf:resource="http://purl.org/dc/dcmitype/StillImage" /><dc:title>common-file-give-hand-2</dc:title></cc:Work></rdf:RDF></metadata><defs
   id="defs13" /><sodipodi:namedview
   pagecolor="#ffffff"
   bordercolor="#666666"
   borderopacity="1"
   objecttolerance="10"
   gridtolerance="10"
   guidetolerance="10"
   inkscape:pageopacity="0"
   inkscape:pageshadow="2"
   inkscape:window-width="3840"
   inkscape:window-height="2004"
   id="namedview11"
   showgrid="false"
   inkscape:zoom="9.8333333"
   inkscape:cx="-39.40678"
   inkscape:cy="12"
   inkscape:window-x="-16"
   inkscape:window-y="-16"
   inkscape:window-maximized="1"
   inkscape:current-layer="Layer_1" />
<title
   id="title2">common-file-give-hand-2</title>
<g
   id="g8"
   style="fill:#119eda;fill-opacity:1">
	<path
   d="M0.75,24C0.336,24,0,23.664,0,23.25v-9c0-0.414,0.336-0.75,0.75-0.75s0.75,0.336,0.75,0.75V15H6c1.8,0,3.324,1.268,3.675,3   h3.075c2.068,0,3.75,1.682,3.75,3.75c0,0.414-0.336,0.75-0.75,0.75H1.5v0.75C1.5,23.664,1.164,24,0.75,24z M14.871,21   c-0.313-0.879-1.159-1.5-2.121-1.5H6c-0.414,0-0.75-0.336-0.75-0.75S5.586,18,6,18h2.118C7.805,17.121,6.96,16.5,6,16.5H1.5V21   H14.871z"
   id="path4"
   style="fill:#119eda;fill-opacity:1" />
	<path
   d="M19.5,21c-0.414,0-0.75-0.336-0.75-0.75s0.336-0.75,0.75-0.75h2.25c0.414,0,0.75-0.336,0.75-0.75V5.121   c0-0.197-0.08-0.39-0.219-0.53l-2.872-2.872c-0.142-0.141-0.33-0.219-0.53-0.219H8.25C7.836,1.5,7.5,1.836,7.5,2.25V12   c0,0.414-0.336,0.75-0.75,0.75S6,12.414,6,12V2.25C6,1.009,7.009,0,8.25,0h10.629c0.601,0,1.165,0.234,1.59,0.658l2.872,2.872   C23.766,3.955,24,4.52,24,5.121V18.75c0,1.241-1.009,2.25-2.25,2.25H19.5z"
   id="path6"
   style="fill:#119eda;fill-opacity:1" />
</g>
</svg>