<?xml version="1.0" encoding="UTF-8" standalone="no"?>
<!-- Generator: Adobe Illustrator 22.1.0, SVG Export Plug-In . SVG Version: 6.00 Build 0)  -->

<svg
   xmlns:dc="http://purl.org/dc/elements/1.1/"
   xmlns:cc="http://creativecommons.org/ns#"
   xmlns:rdf="http://www.w3.org/1999/02/22-rdf-syntax-ns#"
   xmlns:svg="http://www.w3.org/2000/svg"
   xmlns="http://www.w3.org/2000/svg"
   xmlns:sodipodi="http://sodipodi.sourceforge.net/DTD/sodipodi-0.dtd"
   xmlns:inkscape="http://www.inkscape.org/namespaces/inkscape"
   version="1.1"
   id="Regular"
   x="0px"
   y="0px"
   viewBox="0 0 24 24"
   style="enable-background:new 0 0 24 24;"
   xml:space="preserve"
   sodipodi:docname="multiple-users-1.svg"
   inkscape:version="0.92.4 (5da689c313, 2019-01-14)"><metadata
   id="metadata23"><rdf:RDF><cc:Work
       rdf:about=""><dc:format>image/svg+xml</dc:format><dc:type
         rdf:resource="http://purl.org/dc/dcmitype/StillImage" /></cc:Work></rdf:RDF></metadata><defs
   id="defs21" /><sodipodi:namedview
   pagecolor="#ffffff"
   bordercolor="#666666"
   borderopacity="1"
   objecttolerance="10"
   gridtolerance="10"
   guidetolerance="10"
   inkscape:pageopacity="0"
   inkscape:pageshadow="2"
   inkscape:window-width="1920"
   inkscape:window-height="1017"
   id="namedview19"
   showgrid="false"
   inkscape:zoom="9.8333333"
   inkscape:cx="12"
   inkscape:cy="12"
   inkscape:window-x="-8"
   inkscape:window-y="-8"
   inkscape:window-maximized="1"
   inkscape:current-layer="Regular" />
<title
   id="title2">multiple-users-1</title>
<g
   id="g16"
   style="fill:#984caa;fill-opacity:1">
	<path
   d="M4.5,9c-1.654,0-3-1.346-3-3s1.346-3,3-3s3,1.346,3,3S6.154,9,4.5,9z M4.5,4.5C3.673,4.5,3,5.173,3,6s0.673,1.5,1.5,1.5   S6,6.827,6,6S5.327,4.5,4.5,4.5z"
   id="path4"
   style="fill:#984caa;fill-opacity:1" />
	<path
   d="M3,22.5c-0.377,0-0.697-0.282-0.744-0.657L1.588,16.5H0.75C0.336,16.5,0,16.164,0,15.75V13.5C0,11.019,2.019,9,4.5,9   c0.414,0,0.75,0.336,0.75,0.75S4.914,10.5,4.5,10.5c-1.654,0-3,1.346-3,3V15h0.75c0.377,0,0.697,0.282,0.744,0.657L3.662,21H6   c0.414,0,0.75,0.336,0.75,0.75S6.414,22.5,6,22.5H3z"
   id="path6"
   style="fill:#984caa;fill-opacity:1" />
	<path
   d="M19.5,9c-1.654,0-3-1.346-3-3s1.346-3,3-3s3,1.346,3,3S21.154,9,19.5,9z M19.5,4.5C18.673,4.5,18,5.173,18,6   s0.673,1.5,1.5,1.5S21,6.827,21,6S20.327,4.5,19.5,4.5z"
   id="path8"
   style="fill:#984caa;fill-opacity:1" />
	<path
   d="M18,22.5c-0.414,0-0.75-0.336-0.75-0.75S17.586,21,18,21h2.338l0.668-5.343C21.053,15.282,21.373,15,21.75,15h0.75v-1.5   c0-1.654-1.346-3-3-3c-0.414,0-0.75-0.336-0.75-0.75S19.086,9,19.5,9c2.481,0,4.5,2.019,4.5,4.5v2.25c0,0.414-0.336,0.75-0.75,0.75   h-0.838l-0.668,5.343C21.697,22.218,21.377,22.5,21,22.5H18z"
   id="path10"
   style="fill:#984caa;fill-opacity:1" />
	<path
   d="M12,7.5c-2.068,0-3.75-1.682-3.75-3.75S9.932,0,12,0c2.068,0,3.75,1.682,3.75,3.75S14.068,7.5,12,7.5z M12,1.5   c-1.241,0-2.25,1.009-2.25,2.25S10.759,6,12,6c1.241,0,2.25-1.009,2.25-2.25S13.241,1.5,12,1.5z"
   id="path12"
   style="fill:#984caa;fill-opacity:1" />
	<path
   d="M9.75,24c-0.387,0-0.708-0.29-0.746-0.675L8.321,16.5H6.75C6.336,16.5,6,16.164,6,15.75V13.5c0-3.308,2.692-6,6-6   s6,2.692,6,6v2.25c0,0.414-0.336,0.75-0.75,0.75h-1.571l-0.683,6.825C14.958,23.709,14.637,24,14.25,24H9.75z M13.571,22.5   l0.683-6.825C14.292,15.291,14.613,15,15,15h1.5v-1.5c0-2.481-2.019-4.5-4.5-4.5c-2.481,0-4.5,2.019-4.5,4.5V15H9   c0.387,0,0.708,0.29,0.746,0.675l0.682,6.825H13.571z"
   id="path14"
   style="fill:#984caa;fill-opacity:1" />
</g>
</svg>