<?xml version="1.0" encoding="UTF-8" standalone="no"?>
<!-- Generator: Adobe Illustrator 22.1.0, SVG Export Plug-In . SVG Version: 6.00 Build 0)  -->

<svg
   xmlns:dc="http://purl.org/dc/elements/1.1/"
   xmlns:cc="http://creativecommons.org/ns#"
   xmlns:rdf="http://www.w3.org/1999/02/22-rdf-syntax-ns#"
   xmlns:svg="http://www.w3.org/2000/svg"
   xmlns="http://www.w3.org/2000/svg"
   xmlns:sodipodi="http://sodipodi.sourceforge.net/DTD/sodipodi-0.dtd"
   xmlns:inkscape="http://www.inkscape.org/namespaces/inkscape"
   version="1.1"
   id="Layer_1"
   x="0px"
   y="0px"
   viewBox="0 0 24 24"
   style="enable-background:new 0 0 24 24;"
   xml:space="preserve"
   sodipodi:docname="ontology.svg"
   inkscape:version="0.92.4 (5da689c313, 2019-01-14)"><metadata
   id="metadata13"><rdf:RDF><cc:Work
       rdf:about=""><dc:format>image/svg+xml</dc:format><dc:type
         rdf:resource="http://purl.org/dc/dcmitype/StillImage" /><dc:title>hierarchy-4</dc:title></cc:Work></rdf:RDF></metadata><defs
   id="defs11" /><sodipodi:namedview
   pagecolor="#ffffff"
   bordercolor="#666666"
   borderopacity="1"
   objecttolerance="10"
   gridtolerance="10"
   guidetolerance="10"
   inkscape:pageopacity="0"
   inkscape:pageshadow="2"
   inkscape:window-width="1920"
   inkscape:window-height="1017"
   id="namedview9"
   showgrid="false"
   inkscape:zoom="9.8333333"
   inkscape:cx="12"
   inkscape:cy="12"
   inkscape:window-x="-8"
   inkscape:window-y="-8"
   inkscape:window-maximized="1"
   inkscape:current-layer="Layer_1" />
<title
   id="title2">hierarchy-4</title>
<g
   id="g6">
	<path
   d="M20.25,23.998c-1.654,0-3-1.346-3-3c0-1.34,0.914-2.52,2.179-2.882c-0.442-2.658-2.732-4.623-5.458-4.623   c-0.078,0-0.156,0.001-0.234,0.005l-0.986,0v4.599c1.303,0.338,2.25,1.532,2.25,2.902c0,1.654-1.346,3-3,3c-1.654,0-3-1.346-3-3   c0-1.37,0.947-2.564,2.25-2.902v-4.598h-0.955c-0.093-0.003-0.171-0.005-0.248-0.005c-2.736,0-5.034,1.965-5.476,4.623   c1.265,0.363,2.179,1.542,2.179,2.882c0,1.654-1.346,3-3,3s-3-1.346-3-3c0-1.395,0.974-2.6,2.308-2.917   c0.471-3.437,3.478-6.089,6.97-6.089c0.099,0,0.199,0.002,0.298,0.006l0.924,0V7.422c-1.732-0.351-3-1.874-3-3.673   c0-2.068,1.682-3.75,3.75-3.75c2.068,0,3.75,1.682,3.75,3.75c0,1.799-1.268,3.323-3,3.673v4.577h0.955   c0.084-0.004,0.184-0.006,0.283-0.006c3.483,0,6.483,2.652,6.954,6.089c1.335,0.316,2.308,1.522,2.308,2.917   C23.25,22.652,21.904,23.998,20.25,23.998z M20.25,19.498c-0.827,0-1.5,0.673-1.5,1.5s0.673,1.5,1.5,1.5s1.5-0.673,1.5-1.5   S21.077,19.498,20.25,19.498z M12,19.498c-0.827,0-1.5,0.673-1.5,1.5s0.673,1.5,1.5,1.5s1.5-0.673,1.5-1.5S12.827,19.498,12,19.498   z M3.75,19.498c-0.827,0-1.5,0.673-1.5,1.5s0.673,1.5,1.5,1.5s1.5-0.673,1.5-1.5S4.577,19.498,3.75,19.498z M12,1.498   c-1.241,0-2.25,1.009-2.25,2.25s1.009,2.25,2.25,2.25c1.241,0,2.25-1.009,2.25-2.25S13.241,1.498,12,1.498z"
   id="path4" />
</g>
</svg>