<?xml version="1.0" encoding="UTF-8" standalone="no"?>
<!-- Generator: Adobe Illustrator 22.1.0, SVG Export Plug-In . SVG Version: 6.00 Build 0)  -->

<svg
   xmlns:dc="http://purl.org/dc/elements/1.1/"
   xmlns:cc="http://creativecommons.org/ns#"
   xmlns:rdf="http://www.w3.org/1999/02/22-rdf-syntax-ns#"
   xmlns:svg="http://www.w3.org/2000/svg"
   xmlns="http://www.w3.org/2000/svg"
   xmlns:sodipodi="http://sodipodi.sourceforge.net/DTD/sodipodi-0.dtd"
   xmlns:inkscape="http://www.inkscape.org/namespaces/inkscape"
   version="1.1"
   id="Layer_1"
   x="0px"
   y="0px"
   viewBox="0 0 24 24"
   style="enable-background:new 0 0 24 24;"
   xml:space="preserve"
   sodipodi:docname="presentation-statistics.svg"
   inkscape:version="0.92.4 (5da689c313, 2019-01-14)"><metadata
   id="metadata25"><rdf:RDF><cc:Work
       rdf:about=""><dc:format>image/svg+xml</dc:format><dc:type
         rdf:resource="http://purl.org/dc/dcmitype/StillImage" /><dc:title>presentation-statistics</dc:title></cc:Work></rdf:RDF></metadata><defs
   id="defs23" /><sodipodi:namedview
   pagecolor="#ffffff"
   bordercolor="#666666"
   borderopacity="1"
   objecttolerance="10"
   gridtolerance="10"
   guidetolerance="10"
   inkscape:pageopacity="0"
   inkscape:pageshadow="2"
   inkscape:window-width="1920"
   inkscape:window-height="1017"
   id="namedview21"
   showgrid="false"
   inkscape:zoom="9.8333333"
   inkscape:cx="12"
   inkscape:cy="12"
   inkscape:window-x="-8"
   inkscape:window-y="-8"
   inkscape:window-maximized="1"
   inkscape:current-layer="Layer_1" />
<title
   id="title2">presentation-statistics</title>
<g
   id="g18"
   style="fill:#ffffff">
	<path
   d="M5.25,7.5C3.182,7.5,1.5,5.818,1.5,3.75S3.182,0,5.25,0S9,1.683,9,3.75S7.318,7.5,5.25,7.5z M5.25,1.5   C4.009,1.5,3,2.51,3,3.75S4.009,6,5.25,6S7.5,4.991,7.5,3.75S6.491,1.5,5.25,1.5z"
   id="path4"
   style="fill:#ffffff" />
	<path
   d="M3,24c-0.387,0-0.708-0.29-0.746-0.675L1.571,16.5H0.75C0.336,16.5,0,16.164,0,15.75v-3C0,9.855,2.355,7.5,5.25,7.5   s5.25,2.355,5.25,5.25v1.5c0,0.414-0.336,0.75-0.75,0.75S9,14.664,9,14.25v-1.5C9,10.683,7.318,9,5.25,9S1.5,10.683,1.5,12.75V15   h0.75c0.387,0,0.708,0.29,0.746,0.675L3.679,22.5h3.143l0.607-6.075c0.039-0.385,0.357-0.676,0.74-0.676   c0.029,0,0.058,0.002,0.088,0.005c0.192,0.019,0.372,0.115,0.498,0.271c0.127,0.155,0.186,0.35,0.166,0.55l-0.675,6.75   C8.208,23.71,7.887,24,7.5,24H3z"
   id="path6"
   style="fill:#ffffff" />
	<path
   d="M12.75,13.5c-0.414,0-0.75-0.336-0.75-0.75S12.336,12,12.75,12h9c0.414,0,0.75-0.336,0.75-0.75v-9   c0-0.414-0.336-0.75-0.75-0.75h-10.5c-0.414,0-0.75-0.336-0.75-0.75S10.836,0,11.25,0h10.5C22.991,0,24,1.01,24,2.25v9   c0,1.241-1.009,2.25-2.25,2.25H12.75z"
   id="path8"
   style="fill:#ffffff" />
	<path
   d="M13.251,21.75c-1.861,0-3.375-1.514-3.375-3.375S11.39,15,13.251,15c1.861,0,3.375,1.514,3.375,3.375   S15.112,21.75,13.251,21.75z M13.251,16.5c-1.034,0-1.875,0.841-1.875,1.875s0.841,1.875,1.875,1.875s1.875-0.841,1.875-1.875   S14.285,16.5,13.251,16.5z"
   id="path10"
   style="fill:#ffffff" />
	<path
   d="M20.001,21.75c-1.861,0-3.375-1.514-3.375-3.375S18.14,15,20.001,15s3.375,1.514,3.375,3.375S21.862,21.75,20.001,21.75z    M20.001,16.5c-1.034,0-1.875,0.841-1.875,1.875s0.841,1.875,1.875,1.875s1.875-0.841,1.875-1.875S21.035,16.5,20.001,16.5z"
   id="path12"
   style="fill:#ffffff" />
	<path
   d="M23.25,24.001c-0.22,0-0.428-0.096-0.571-0.264c-0.669-0.785-1.646-1.235-2.682-1.235c-0.835,0-1.644,0.298-2.279,0.838   c-0.143,0.122-0.277,0.255-0.397,0.397C17.178,23.904,16.97,24,16.75,24c-0.042,0-0.084-0.004-0.125-0.01   C16.583,23.997,16.542,24,16.5,24c-0.22,0-0.428-0.096-0.571-0.264c-0.669-0.785-1.646-1.236-2.682-1.236   c-0.835,0-1.644,0.298-2.279,0.838c-0.143,0.122-0.276,0.255-0.397,0.397c-0.143,0.168-0.351,0.264-0.571,0.264   c-0.178,0-0.351-0.064-0.486-0.179c-0.152-0.13-0.245-0.311-0.261-0.511c-0.016-0.2,0.047-0.394,0.177-0.546   c0.172-0.202,0.363-0.393,0.567-0.567c0.907-0.773,2.059-1.198,3.244-1.198c0.136,0,0.274,0.005,0.411,0.017   c1.109,0.089,2.151,0.544,2.971,1.292c0.042-0.039,0.083-0.075,0.124-0.11c0.907-0.773,2.059-1.198,3.244-1.198   c0.136,0,0.274,0.005,0.411,0.017c1.336,0.107,2.551,0.728,3.42,1.749c0.13,0.153,0.193,0.346,0.177,0.546   s-0.109,0.381-0.261,0.511C23.601,23.937,23.428,24.001,23.25,24.001L23.25,24.001z"
   id="path14"
   style="fill:#ffffff" />
	<path
   d="M12.75,10.5c-0.414,0-0.75-0.336-0.75-0.75S12.336,9,12.75,9H15V6c0-0.414,0.336-0.75,0.75-0.75S16.5,5.587,16.5,6v3H18   V3.75C18,3.337,18.336,3,18.75,3s0.75,0.336,0.75,0.75V9h0.75C20.664,9,21,9.337,21,9.75s-0.336,0.75-0.75,0.75H12.75z"
   id="path16"
   style="fill:#ffffff" />
</g>
</svg>