<?xml version="1.0" encoding="UTF-8" standalone="no"?>
<!-- Generator: Adobe Illustrator 22.1.0, SVG Export Plug-In . SVG Version: 6.00 Build 0)  -->

<svg
   xmlns:dc="http://purl.org/dc/elements/1.1/"
   xmlns:cc="http://creativecommons.org/ns#"
   xmlns:rdf="http://www.w3.org/1999/02/22-rdf-syntax-ns#"
   xmlns:svg="http://www.w3.org/2000/svg"
   xmlns="http://www.w3.org/2000/svg"
   xmlns:sodipodi="http://sodipodi.sourceforge.net/DTD/sodipodi-0.dtd"
   xmlns:inkscape="http://www.inkscape.org/namespaces/inkscape"
   version="1.1"
   id="Layer_1"
   x="0px"
   y="0px"
   viewBox="0 0 24 24"
   style="enable-background:new 0 0 24 24;"
   xml:space="preserve"
   sodipodi:docname="send-email.svg"
   inkscape:version="0.92.4 (5da689c313, 2019-01-14)"><metadata
   id="metadata13"><rdf:RDF><cc:Work
       rdf:about=""><dc:format>image/svg+xml</dc:format><dc:type
         rdf:resource="http://purl.org/dc/dcmitype/StillImage" /></cc:Work></rdf:RDF></metadata><defs
   id="defs11" /><sodipodi:namedview
   pagecolor="#ffffff"
   bordercolor="#666666"
   borderopacity="1"
   objecttolerance="10"
   gridtolerance="10"
   guidetolerance="10"
   inkscape:pageopacity="0"
   inkscape:pageshadow="2"
   inkscape:window-width="3840"
   inkscape:window-height="2004"
   id="namedview9"
   showgrid="false"
   inkscape:zoom="9.8333333"
   inkscape:cx="-39.40678"
   inkscape:cy="12"
   inkscape:window-x="-16"
   inkscape:window-y="-16"
   inkscape:window-maximized="1"
   inkscape:current-layer="Layer_1" />
<title
   id="title2">send-email</title>
<g
   id="g6"
   style="fill:#ffffff">
	<path
   d="M17.642,24c-0.149,0-0.299-0.014-0.447-0.042c-0.595-0.112-1.122-0.44-1.485-0.923l-1.501-2.004l-2.587,1.763   c-0.402,0.274-0.872,0.419-1.359,0.419c-1.331,0-2.413-1.083-2.413-2.413V16.38H2.759c-1.331,0-2.414-1.083-2.414-2.414   c0-0.838,0.424-1.603,1.135-2.047L19.963,0.365c0.383-0.24,0.825-0.367,1.276-0.367c0.839,0,1.605,0.423,2.049,1.132   c0.323,0.517,0.439,1.131,0.325,1.73l-3.6,19.171C19.799,23.173,18.801,24,17.642,24z M16.91,22.135   c0.137,0.183,0.337,0.307,0.562,0.349c0.055,0.01,0.112,0.015,0.168,0.015c0.44,0,0.818-0.313,0.899-0.745l3.6-19.172   c0.017-0.088,0.021-0.177,0.012-0.265L12.039,15.632L16.91,22.135z M9.35,20.801c0,0.503,0.41,0.913,0.913,0.913   c0.184,0,0.362-0.055,0.515-0.159l2.53-1.725l-2.583-3.451H9.35V20.801z M20.758,1.637L2.275,13.191   c-0.269,0.168-0.429,0.458-0.429,0.775c0,0.504,0.41,0.914,0.914,0.914h7.968L20.805,1.609C20.79,1.618,20.774,1.627,20.758,1.637z   "
   id="path4"
   style="fill:#ffffff" />
</g>
</svg>