<?xml version="1.0" encoding="UTF-8" standalone="no"?>
<!-- Generator: Adobe Illustrator 22.1.0, SVG Export Plug-In . SVG Version: 6.00 Build 0)  -->

<svg
   xmlns:dc="http://purl.org/dc/elements/1.1/"
   xmlns:cc="http://creativecommons.org/ns#"
   xmlns:rdf="http://www.w3.org/1999/02/22-rdf-syntax-ns#"
   xmlns:svg="http://www.w3.org/2000/svg"
   xmlns="http://www.w3.org/2000/svg"
   xmlns:sodipodi="http://sodipodi.sourceforge.net/DTD/sodipodi-0.dtd"
   xmlns:inkscape="http://www.inkscape.org/namespaces/inkscape"
   version="1.1"
   id="Layer_1"
   x="0px"
   y="0px"
   viewBox="0 0 24 24"
   style="enable-background:new 0 0 24 24;"
   xml:space="preserve"
   sodipodi:docname="shipment-give.svg"
   inkscape:version="0.92.4 (5da689c313, 2019-01-14)"><metadata
   id="metadata17"><rdf:RDF><cc:Work
       rdf:about=""><dc:format>image/svg+xml</dc:format><dc:type
         rdf:resource="http://purl.org/dc/dcmitype/StillImage" /><dc:title>shipment-give</dc:title></cc:Work></rdf:RDF></metadata><defs
   id="defs15" /><sodipodi:namedview
   pagecolor="#ffffff"
   bordercolor="#666666"
   borderopacity="1"
   objecttolerance="10"
   gridtolerance="10"
   guidetolerance="10"
   inkscape:pageopacity="0"
   inkscape:pageshadow="2"
   inkscape:window-width="1920"
   inkscape:window-height="1017"
   id="namedview13"
   showgrid="false"
   inkscape:zoom="9.8333333"
   inkscape:cx="12"
   inkscape:cy="12"
   inkscape:window-x="-8"
   inkscape:window-y="-8"
   inkscape:window-maximized="1"
   inkscape:current-layer="Layer_1" />
<title
   id="title2">shipment-give</title>
<g
   id="g10"
   style="fill:#ffffff">
	<path
   d="M3.75,24c-0.229,0-0.443-0.103-0.586-0.281L1.15,21.202C0.408,20.274,0,19.109,0,17.922V12.75   c0-1.241,1.009-2.25,2.25-2.25s2.25,1.009,2.25,2.25v1.82c0.209-0.067,0.427-0.101,0.647-0.101c0.176,0,0.353,0.022,0.525,0.065   c0.557,0.139,1.026,0.487,1.322,0.98l1.123,1.684C8.695,18.064,9,19.073,9,20.115v3c0,0.414-0.336,0.75-0.75,0.75   s-0.75-0.336-0.75-0.75v-3c0-0.744-0.218-1.465-0.631-2.083l-1.142-1.715c-0.106-0.176-0.248-0.284-0.419-0.326   c-0.053-0.013-0.106-0.02-0.16-0.02c-0.116,0-0.231,0.032-0.333,0.093l-0.031,0.02c-0.26,0.174-0.358,0.521-0.225,0.81l1.333,2.222   c0.103,0.172,0.133,0.373,0.084,0.568s-0.17,0.358-0.342,0.461c-0.116,0.07-0.25,0.107-0.385,0.107   c-0.262,0-0.508-0.14-0.643-0.364l-1.35-2.25c-0.009-0.014-0.018-0.032-0.027-0.049c-0.159-0.316-0.238-0.672-0.227-1.031   C3.001,16.537,3,16.519,3,16.5v-3.75C3,12.336,2.664,12,2.25,12S1.5,12.336,1.5,12.75v5.172c0,0.848,0.292,1.68,0.822,2.343   l2.014,2.517c0.258,0.323,0.206,0.796-0.117,1.054C4.086,23.941,3.92,24,3.75,24z"
   id="path4"
   style="fill:#ffffff" />
	<path
   d="M20.25,24c-0.169,0-0.336-0.058-0.468-0.164c-0.323-0.259-0.375-0.731-0.117-1.054l2.014-2.517   c0.53-0.662,0.822-1.494,0.822-2.342V12.75c0-0.414-0.336-0.75-0.75-0.75S21,12.336,21,12.75v3.75c0,0.019-0.001,0.037-0.003,0.055   c0.011,0.359-0.067,0.715-0.227,1.033c-0.009,0.018-0.019,0.036-0.03,0.054l-1.347,2.244c-0.135,0.225-0.382,0.364-0.644,0.364   c-0.136,0-0.269-0.037-0.386-0.107c-0.171-0.102-0.292-0.266-0.341-0.461c-0.049-0.194-0.018-0.396,0.085-0.568l1.333-2.222   c0.133-0.289,0.036-0.636-0.23-0.813l-0.033-0.02c-0.095-0.057-0.21-0.089-0.326-0.089c-0.053,0-0.107,0.007-0.16,0.02   c-0.169,0.042-0.311,0.147-0.4,0.296l-1.161,1.744c-0.414,0.619-0.632,1.34-0.631,2.084v3c0,0.414-0.336,0.75-0.75,0.75   S15,23.528,15,23.114v-3c0-1.041,0.305-2.05,0.883-2.916l1.142-1.714c0.28-0.468,0.746-0.81,1.303-0.949   c0.172-0.043,0.349-0.065,0.525-0.065c0.22,0,0.438,0.034,0.647,0.101v-1.82c0-1.241,1.009-2.25,2.25-2.25S24,11.509,24,12.75   v5.172c0,1.188-0.409,2.352-1.151,3.28l-2.014,2.517C20.693,23.897,20.479,24,20.25,24z"
   id="path6"
   style="fill:#ffffff" />
	<path
   d="M12,16.072c-0.065,0-0.129-0.008-0.192-0.025c-0.019-0.005-0.049-0.016-0.07-0.025c-0.045-0.016-0.078-0.031-0.111-0.049   l-4.5-2.572c-0.174-0.1-0.299-0.261-0.351-0.454c-0.053-0.193-0.027-0.396,0.072-0.57C6.982,12.145,7.232,12,7.5,12   c0.13,0,0.258,0.034,0.371,0.099l3.378,1.931V8.042l-4.5-2.571V9.75c0,0.414-0.336,0.75-0.75,0.75s-0.75-0.336-0.75-0.75V4.179   c0-0.066,0.009-0.132,0.026-0.196C5.281,3.965,5.292,3.937,5.3,3.916c0.015-0.041,0.03-0.077,0.05-0.112   c0.011-0.019,0.036-0.053,0.05-0.07c0.016-0.025,0.041-0.057,0.069-0.085c0.015-0.015,0.049-0.043,0.067-0.055   C5.561,3.572,5.591,3.549,5.624,3.53c0.002-0.001,6.004-3.431,6.004-3.431C11.741,0.034,11.87,0,12,0s0.259,0.034,0.372,0.099   c0,0,6.008,3.434,6.012,3.436c0.007,0.004,0.014,0.009,0.021,0.014c0.026,0.017,0.046,0.033,0.065,0.049   c0.019,0.013,0.046,0.036,0.062,0.052c0.027,0.027,0.051,0.058,0.074,0.091c0.011,0.013,0.028,0.036,0.042,0.06   c0.023,0.039,0.039,0.079,0.053,0.12c0.004,0.006,0.014,0.031,0.021,0.058c0.018,0.066,0.027,0.132,0.027,0.198V9.75   c0,0.414-0.336,0.75-0.75,0.75s-0.75-0.336-0.75-0.75V5.471l-4.5,2.571v5.987l3.378-1.931C16.241,12.034,16.37,12,16.499,12   c0.269,0,0.519,0.145,0.652,0.378c0.099,0.174,0.125,0.376,0.072,0.569s-0.177,0.355-0.352,0.454l-4.498,2.571   c-0.038,0.022-0.076,0.037-0.114,0.051c-0.018,0.008-0.042,0.017-0.061,0.023C12.129,16.064,12.065,16.072,12,16.072z M12,6.743   l4.488-2.564L12,1.614L7.512,4.179L12,6.743z"
   id="path8"
   style="fill:#ffffff" />
</g>
</svg>