<?xml version="1.0" encoding="UTF-8" standalone="no"?>
<!-- Generator: Adobe Illustrator 22.1.0, SVG Export Plug-In . SVG Version: 6.00 Build 0)  -->

<svg
   xmlns:dc="http://purl.org/dc/elements/1.1/"
   xmlns:cc="http://creativecommons.org/ns#"
   xmlns:rdf="http://www.w3.org/1999/02/22-rdf-syntax-ns#"
   xmlns:svg="http://www.w3.org/2000/svg"
   xmlns="http://www.w3.org/2000/svg"
   xmlns:sodipodi="http://sodipodi.sourceforge.net/DTD/sodipodi-0.dtd"
   xmlns:inkscape="http://www.inkscape.org/namespaces/inkscape"
   version="1.1"
   id="Regular"
   x="0px"
   y="0px"
   viewBox="0 0 24 24"
   style="enable-background:new 0 0 24 24;"
   xml:space="preserve"
   sodipodi:docname="tree-2.svg"
   inkscape:version="0.92.4 (5da689c313, 2019-01-14)"><metadata
   id="metadata13"><rdf:RDF><cc:Work
       rdf:about=""><dc:format>image/svg+xml</dc:format><dc:type
         rdf:resource="http://purl.org/dc/dcmitype/StillImage" /></cc:Work></rdf:RDF></metadata><defs
   id="defs11" /><sodipodi:namedview
   pagecolor="#ffffff"
   bordercolor="#666666"
   borderopacity="1"
   objecttolerance="10"
   gridtolerance="10"
   guidetolerance="10"
   inkscape:pageopacity="0"
   inkscape:pageshadow="2"
   inkscape:window-width="1920"
   inkscape:window-height="1017"
   id="namedview9"
   showgrid="false"
   inkscape:zoom="9.8333333"
   inkscape:cx="12"
   inkscape:cy="12"
   inkscape:window-x="-8"
   inkscape:window-y="-8"
   inkscape:window-maximized="1"
   inkscape:current-layer="Regular" />
<title
   id="title2">tree-2</title>
<g
   id="g6"
   style="fill:#984caa;fill-opacity:1">
	<path
   d="M11.997,23.998c-0.414,0-0.75-0.336-0.75-0.75v-4.134c-0.603,0.257-1.237,0.387-1.888,0.387   c-0.566,0-1.127-0.1-1.666-0.298c-1.089-0.399-1.989-1.168-2.552-2.174c-1.684-0.468-3.114-1.679-3.845-3.269   c-0.669-1.453-0.731-3.08-0.177-4.58c0.488-1.32,1.416-2.417,2.628-3.113C3.746,6.009,3.746,5.951,3.747,5.893   c0.016-0.99,0.416-1.913,1.127-2.602c0.664-0.643,1.527-1.01,2.445-1.041c0.367-0.46,0.799-0.863,1.287-1.198   c1.004-0.691,2.173-1.056,3.38-1.056c0.367,0,0.738,0.034,1.102,0.102c1.425,0.264,2.693,1.026,3.591,2.153   c0.191,0.007,0.373,0.027,0.552,0.061c1.79,0.337,3.073,1.959,3.017,3.756c1.853,1.066,2.996,3.028,3.001,5.179   c-0.001,2.664-1.839,5.067-4.395,5.78c-0.152,0.271-0.329,0.527-0.53,0.764c-0.919,1.084-2.263,1.705-3.689,1.705h0   c-0.651,0-1.293-0.131-1.887-0.383v4.135C12.747,23.662,12.411,23.998,11.997,23.998z M7.454,3.748   c-0.578,0-1.124,0.221-1.537,0.621c-0.423,0.41-0.661,0.959-0.67,1.548c-0.002,0.148,0.01,0.297,0.038,0.443   c0.064,0.339-0.11,0.676-0.424,0.82C3.772,7.681,2.943,8.576,2.527,9.701c-0.416,1.125-0.369,2.344,0.133,3.433   c0.59,1.283,1.768,2.223,3.149,2.515c0.23,0.049,0.426,0.205,0.525,0.418c0.374,0.808,1.04,1.421,1.876,1.728   c0.372,0.136,0.759,0.206,1.149,0.206c0.483,0,0.954-0.104,1.399-0.311c0.168-0.078,0.332-0.172,0.49-0.281v-4.692   c-2.038-0.252-3.623-1.913-3.749-3.997c-0.01-0.172-0.01-0.346,0-0.517c0.024-0.395,0.354-0.705,0.75-0.705   c0.007,0,0.034,0.001,0.041,0.001c0.202,0.012,0.385,0.101,0.518,0.251s0.199,0.343,0.187,0.543c-0.007,0.112-0.007,0.225,0,0.337   c0.078,1.288,1.018,2.333,2.251,2.572V8.248c0-0.414,0.336-0.75,0.75-0.75c0.413,0,0.75,0.336,0.75,0.75v5.958   c2.044-0.223,3-1.41,3-3.708c0-0.414,0.336-0.75,0.75-0.75s0.75,0.336,0.75,0.75c0,3.113-1.594,4.952-4.5,5.213v1.694   c0.557,0.386,1.208,0.589,1.892,0.589c0.981,0,1.907-0.427,2.539-1.173c0.194-0.229,0.356-0.483,0.482-0.756   c0.1-0.213,0.296-0.37,0.525-0.418c2.063-0.439,3.561-2.289,3.562-4.398c-0.004-1.743-1.03-3.34-2.614-4.069   c-0.313-0.144-0.487-0.481-0.424-0.82c0.109-0.578-0.014-1.164-0.347-1.651c-0.333-0.487-0.834-0.815-1.411-0.923   c-0.134-0.025-0.269-0.038-0.401-0.038l-0.04,0c-0.059,0.009-0.104,0.015-0.15,0.018c-0.015,0.001-0.033,0.002-0.051,0.002   c-0.245,0-0.475-0.122-0.615-0.325c-0.679-0.987-1.702-1.651-2.881-1.87c-0.273-0.051-0.552-0.076-0.827-0.076   c-0.904,0-1.78,0.274-2.532,0.791C9.001,2.6,8.612,2.988,8.3,3.442C8.16,3.646,7.928,3.767,7.68,3.767   c-0.007,0-0.036-0.001-0.043-0.001C7.589,3.763,7.543,3.757,7.499,3.751C7.484,3.749,7.469,3.748,7.454,3.748z"
   id="path4"
   style="fill:#984caa;fill-opacity:1" />
</g>
</svg>