<svg xmlns="http://www.w3.org/2000/svg" id="Layer_1" data-name="Layer 1" viewBox="0 0 64 64" version="1.1"><defs id="defs4"><style id="style2">.cls-3{fill:#fff}</style></defs><circle cx="32" cy="32" r="32" id="circle8" fill="#5c2d91"/><path d="M9.82 9A32 32 0 1055 54.18z" id="path10" opacity=".1" fill="#fff"/><g id="g4545" transform="translate(0 3.99)"><path id="path12" d="M7.4 37.25a1.35 1.35 0 01-1-.42 1.38 1.38 0 01-.41-1 1.4 1.4 0 01.41-1 1.34 1.34 0 011-.43 1.37 1.37 0 011 .43 1.39 1.39 0 01.42 1 1.37 1.37 0 01-.42 1 1.38 1.38 0 01-1 .42z" class="cls-3" fill="#fff"/><path id="path14" d="M27.27 37h-2.62l-9.37-14.54a6 6 0 01-.58-1.14h-.08a18.72 18.72 0 01.1 2.5V37h-2.13V18.77h2.77l9.12 14.28q.57.89.74 1.22h.05a19.28 19.28 0 01-.13-2.68V18.77h2.13z" class="cls-3" fill="#fff"/><path id="path16" d="M41.69 37H32V18.77h9.24v1.93h-7.06v6.06h6.58v1.92h-6.58V35h7.52z" class="cls-3" fill="#fff"/><path id="path18" d="M56 20.7h-5.3V37h-2.13V20.7h-5.24v-1.93H56z" class="cls-3" fill="#fff"/></g></svg>