<svg xmlns="http://www.w3.org/2000/svg" version="1.1" id="Layer_1" x="0" y="0" xml:space="preserve" width="141.8" height="42.347"><style type="text/css" id="style900">.st0{fill:#00953a}.st1{fill:#fffffe}</style><g id="g964" transform="translate(-349.6 -276.177)"><g id="g918"><path class="st0" id="polygon902" d="M413.9 307.1h5.4v1.7h-5.4v4.1h5.7v1.7h-7.5v-13.1h7.4v1.7h-5.6z"/><path class="st0" id="polygon904" d="M425.4 314.6h-1.7v-13.1h1.7z"/><path class="st0" d="M432 310.5h6.1c0-3.2-1.5-4.7-3.7-4.7-2.4 0-4 1.7-4 4.4 0 2.4 1.5 4.6 4.2 4.6 1.4 0 2.4-.4 3.4-1V312c-1 .7-2 1-3 1-1.8.1-2.8-.8-3-2.5zm2.3-3.3c1.2 0 2 .8 2 2.2H432c.2-1.4 1-2.2 2.3-2.2z" id="path906"/><path class="st0" d="M448.8 308.2c-1-.7-1.6-.9-2.4-.9-1.6 0-2.6 1.2-2.6 2.9 0 1.8 1.1 2.9 2.9 2.9.7 0 1.4-.2 2.3-.6v1.6c-.6.3-1.7.5-2.6.5-2.6 0-4.4-1.8-4.4-4.3 0-2.8 1.6-4.6 4.2-4.6 1 0 1.7.2 2.5.6v1.9z" id="path908"/><path class="st0" d="M456.4 305.9h2.7v1.5h-2.7v4.4c0 1 .7 1.3 1.2 1.3.6 0 1.2-.2 1.9-.6v1.6c-.6.3-1.5.6-2.1.6-1.8 0-2.8-1.2-2.8-2.7v-4.5h-1.5v-.2l3.2-3.1v1.7z" id="path910"/><path class="st0" d="M465.3 305.9v2c.9-1.5 1.7-2.2 2.5-2.2.7 0 1.3.3 2.1 1l-.9 1.5c-.5-.5-1.2-.8-1.6-.8-1.2 0-2.1 1.2-2.1 2.6v4.5h-1.7v-8.6z" id="path912"/><path class="st0" id="polygon914" d="M476.4 314.6h-1.7v-8.7h1.7z"/><path class="st0" d="M487.4 308.2c-1-.7-1.6-.9-2.4-.9-1.6 0-2.6 1.2-2.6 2.9 0 1.8 1.1 2.9 2.9 2.9.7 0 1.4-.2 2.3-.6v1.6c-.6.3-1.7.5-2.6.5-2.6 0-4.4-1.8-4.4-4.3 0-2.8 1.6-4.6 4.2-4.6 1 0 1.7.2 2.5.6v1.9z" id="path916"/></g><g id="g942"><g id="g938"><path class="st0" d="M365.8 282.3c-3.2-1.4-5.2-1.9-7.1-1.9-2 0-3.3.7-3.3 1.8 0 3.4 11.4 2.4 11.4 10.2 0 4.2-3.6 6.8-8.6 6.8-4 0-5.9-1-8.1-2.2v-4.8c3.2 2.2 5.1 2.9 7.6 2.9 2.2 0 3.3-.7 3.3-2.1 0-3.6-11.4-2.3-11.4-10.3 0-3.9 3.4-6.4 8.6-6.4 2.5 0 4.8.5 7.6 1.7z" id="path920"/><path class="st0" d="M381.8 298.1c-1.9.6-3.5 1-5.1 1-5.3 0-8.8-3.1-8.8-7.8 0-4.6 3.6-7.8 8.6-7.8 1.5 0 3.5.4 5.1 1v3.5c-1.3-.6-2.7-1.1-3.9-1.1-2.9 0-4.7 1.7-4.7 4.4s1.8 4.5 4.5 4.5c1.2 0 2.2-.3 4.2-1.1v3.4z" id="path922"/><path class="st0" d="M394.1 296.2v-6c0-2.2-.9-3.3-2.4-3.3-1.1 0-2 .7-3.2 2.3v9.6h-4.8v-22.3h4.8v9.4h.1c1.4-1.7 2.9-2.5 4.8-2.5 2.8 0 5.5 1.7 5.5 5.8v6.1c-1.7 0-3.6.6-4.8.9z" id="path924"/><path class="st0" d="M401 295v-11.3h4.8v2.2c1.5-1.7 3-2.4 5-2.4 2.4 0 5.5 1.4 5.5 5.8v9.6h-4.8v-9.2c0-2.2-1-3-2.4-3-1.2 0-2 .6-3.3 2.5v6.6c-1.6-.5-3.2-.7-4.8-.8z" id="path926"/><path class="st0" d="M426.1 283.4c-4.7 0-8 3.3-8 7.9 0 4.7 3.5 7.8 8.8 7.8 1.2 0 4 0 6.8-2v-3c-2.2 1.6-3.7 2.2-5.6 2.2-3 0-4.8-1.6-5-4.2h10.8c.3-5.6-3.4-8.7-7.8-8.7zm-2.9 6.1c.2-2.1 1.4-3.3 3.3-3.3 1.8 0 3.1 1.3 3.2 3.3z" id="path928"/><path class="st0" id="polygon930" d="M440.5 298.8h-4.7v-15.1h4.7z"/><path class="st0" d="M453.7 276.5v7.9c-1.2-.6-2.5-.9-3.9-.9-4.3 0-7.3 3.2-7.3 7.8 0 4.5 3 7.8 7.1 7.8 1.6 0 2.9-.4 4.2-1.5v1.2h4.8v-22.3zm0 18.2c-.9.9-1.8 1.2-2.8 1.2-2.2 0-3.7-1.9-3.7-4.6 0-3 1.4-4.8 3.8-4.8.9 0 2 .4 2.7.9z" id="path932"/><path class="st0" d="M468.4 283.4c-4.7 0-8 3.3-8 7.9 0 4.7 3.5 7.8 8.8 7.8 1.2 0 4 0 6.8-2v-3c-2.2 1.6-3.7 2.2-5.6 2.2-3 0-4.8-1.6-5-4.2h10.9c.1-5.6-3.5-8.7-7.9-8.7zm-2.9 6.1c.2-2.1 1.4-3.3 3.2-3.3 1.9 0 3.1 1.3 3.3 3.3z" id="path934"/><path class="st0" d="M483.4 288c1.4-3.2 3-4.6 4.9-4.6.9 0 1.7.4 3.1 1.4L490 289c-1.2-.8-2-1.1-2.8-1.1-1.7 0-2.9 1.7-3.9 4.4v6.6h-4.8v-15.1h4.8v4.2z" id="path936"/></g><path class="st0" d="M440.7 277.3c.4 1.2-.4 2.9-1.8 3.7-1.4.9-3 .6-3.4-.6-.4-1.2.4-2.8 1.8-3.7 1.5-.9 3-.6 3.4.6z" id="path940"/></g><path class="st0" d="M476.5 302.9c.2.4-.2 1-.7 1.3-.5.3-1 .2-1.2-.2-.2-.4.1-1 .6-1.3.6-.4 1.1-.3 1.3.2z" id="path944"/><g id="g962"><path class="st0" d="M389.7 301.8c5-5.1 12-6.8 15.7-3.6 3.7 3.2 2.7 9.9-2.3 15.1-4.9 5.1-12 6.8-15.7 3.6-3.6-3.2-2.6-10 2.3-15.1z" id="path946"/><g id="g960"><path class="st0" d="M393.3 314.1h-5l.8-3h2.8c.4 0 1-.3 1.1-.7l1.2-5.4c.5-2.2 3.3-4 5.5-4h4.9l-.7 2.7h-2.6c-.6 0-.8.1-.9.6l-1.5 5.8c-.5 2.3-3.3 4-5.6 4z" id="path948"/><path class="st1" d="M386.9 305.7c.4-.7.8-1.3 1.2-1.9h2.9l-.6 1.9z" id="path950"/><path class="st1" d="M385.5 309.4c.1-.6.3-1.3.6-1.9h4l-.6 1.9z" id="path952"/><path class="st1" d="M406.2 309.1c-.3.7-.7 1.3-1.2 1.9h-3.8l.6-1.9z" id="path954"/><path class="st1" d="M407.5 305.4c-.1.6-.3 1.3-.5 1.9h-4.8l.6-1.9z" id="path956"/><path class="st1" d="M393.3 314.1h-5l.8-3h2.8c.4 0 1-.3 1.1-.7l1.2-5.4c.5-2.2 3.3-4 5.5-4h4.9l-.7 2.7h-2.6c-.6 0-.8.1-.9.6l-1.5 5.8c-.5 2.3-3.3 4-5.6 4z" id="path958"/></g></g></g></svg>