<svg xmlns="http://www.w3.org/2000/svg" width="353.515" height="71.726"><path d="M0 21.323c3.64-3.007 8.862-5.301 14.322-5.301 9.1 0 14.084 5.222 14.084 11.473 0 7.28-6.172 9.574-11.71 11.632-4.352 1.661-8.546 3.006-8.546 6.646 0 2.928 2.215 5.539 7.042 5.539 3.403 0 6.172-1.424 8.783-3.403l3.086 4.115c-2.928 2.374-7.121 4.352-11.948 4.352-8.308 0-13.214-4.748-13.214-10.92 0-6.488 6.014-9.099 11.473-11.077 4.194-1.583 8.783-3.323 8.783-7.28 0-3.323-2.532-6.013-7.596-6.013-4.59 0-7.992 1.899-11.315 4.59L0 21.322zM34.65 36.12c0-12.581 8.15-20.098 18.437-20.098 5.223 0 9.337 1.82 12.66 3.956l-2.294 4.273c-2.849-1.82-5.935-3.007-9.575-3.007-7.358 0-12.343 5.222-12.818 13.53h25.953c.159.95.238 2.216.238 3.561 0 10.999-5.54 18.04-15.35 18.04-8.784 0-17.25-7.674-17.25-20.255zm6.331 2.927c.791 7.755 5.697 12.186 11.078 12.186 6.013 0 9.495-4.352 9.495-12.186H40.98zm35.772-22.076h6.489v27.853c3.56 3.956 6.804 5.934 9.653 5.934 4.906 0 7.2-3.086 7.2-10.286v-23.5h6.489v27.852c3.56 3.956 6.646 5.934 9.653 5.934 4.827 0 7.121-3.086 7.121-10.286v-23.5h6.489v24.37c0 9.812-3.798 15.034-11.71 15.034-4.67 0-8.626-3.007-12.661-7.359-1.583 4.59-4.748 7.359-10.603 7.359-4.59 0-8.625-2.849-11.948-6.488h-.237l-.554 5.538h-5.38V16.971zm68.85 46.368c2.532 0 4.51 1.74 4.51 4.194 0 2.532-1.978 4.193-4.51 4.193s-4.51-1.661-4.51-4.193c0-2.453 1.978-4.194 4.51-4.194zm-3.324-46.368h6.489v38.455h-6.489V16.971zm16.624 19.149c0-12.74 8.387-20.098 17.803-20.098S194.51 23.38 194.51 36.12c0 12.897-8.388 20.256-17.804 20.256-9.416 0-17.803-7.359-17.803-20.256zm6.726 0c0 8.862 4.51 14.875 11.077 14.875 6.647 0 11.078-6.013 11.078-14.875 0-8.783-4.431-14.718-11.078-14.718-6.567 0-11.077 5.935-11.077 14.718zm36.78 1.07c0 12.817 6.25 20.097 15.904 20.097 4.51 0 8.625-2.532 11.632-5.46h.237l.554 4.51h5.38V0h-6.567v14.797l.316 6.567c-3.402-2.77-6.33-4.431-10.76-4.431-8.784 0-16.696 7.754-16.696 20.256zm6.725-.08c0-8.783 4.906-14.717 11.078-14.717 3.165 0 6.093 1.107 9.337 4.035v20.098c-3.165 3.56-6.251 5.301-9.812 5.301-6.725 0-10.603-5.538-10.603-14.717zm37.086.08c0 12.58 8.15 20.097 18.436 20.097 5.222 0 9.337-1.82 12.66-3.956l-2.295-4.273c-2.848 1.82-5.934 3.007-9.574 3.007-7.358 0-12.343-5.223-12.818-13.53h25.953c.158-.95.238-2.216.238-3.561 0-10.999-5.54-18.041-15.35-18.041-8.784 0-17.25 7.675-17.25 20.256zm6.33-2.929c.791-7.754 5.697-12.185 11.077-12.185 6.014 0 9.495 4.352 9.495 12.185H252.55zm31.5 17.725c3.639 3.006 8.861 5.301 14.321 5.301 9.1 0 14.084-5.222 14.084-11.473 0-7.28-6.171-9.574-11.71-11.632-4.352-1.661-8.546-3.006-8.546-6.646 0-2.928 2.216-5.539 7.042-5.539 3.403 0 6.172 1.424 8.783 3.402l3.086-4.114c-2.927-2.374-7.121-4.352-11.948-4.352-8.308 0-13.214 4.747-13.214 10.92 0 6.488 6.014 9.099 11.473 11.077 4.194 1.582 8.783 3.323 8.783 7.28 0 3.323-2.532 6.013-7.596 6.013-4.589 0-7.991-1.899-11.315-4.59l-3.244 4.353zm37.499 4.352h6.409V46.209l7.2-8.387 11.236 18.516h7.122l-14.639-23.026 12.898-15.43h-7.2l-16.38 20.257h-.237V0h-6.41v56.338z" font-weight="400" font-size="79.126" font-family="Source Sans Pro" letter-spacing="0" word-spacing="0"/></svg>