<?xml version="1.0" encoding="UTF-8" standalone="no"?>
<svg
   xmlns:dc="http://purl.org/dc/elements/1.1/"
   xmlns:cc="http://creativecommons.org/ns#"
   xmlns:rdf="http://www.w3.org/1999/02/22-rdf-syntax-ns#"
   xmlns:svg="http://www.w3.org/2000/svg"
   xmlns="http://www.w3.org/2000/svg"
   xmlns:sodipodi="http://sodipodi.sourceforge.net/DTD/sodipodi-0.dtd"
   xmlns:inkscape="http://www.inkscape.org/namespaces/inkscape"
   id="Layer_1"
   data-name="Layer 1"
   viewBox="0 0 64 64"
   version="1.1"
   sodipodi:docname="dotnet.svg"
   inkscape:version="0.92.4 (5da689c313, 2019-01-14)">
  <metadata
     id="metadata31">
    <rdf:RDF>
      <cc:Work
         rdf:about="">
        <dc:format>image/svg+xml</dc:format>
        <dc:type
           rdf:resource="http://purl.org/dc/dcmitype/StillImage" />
      </cc:Work>
    </rdf:RDF>
  </metadata>
  <sodipodi:namedview
     pagecolor="#ffffff"
     bordercolor="#666666"
     borderopacity="1"
     objecttolerance="10"
     gridtolerance="10"
     guidetolerance="10"
     inkscape:pageopacity="0"
     inkscape:pageshadow="2"
     inkscape:window-width="1920"
     inkscape:window-height="1017"
     id="namedview29"
     showgrid="false"
     inkscape:zoom="3.6875"
     inkscape:cx="32"
     inkscape:cy="32"
     inkscape:window-x="-8"
     inkscape:window-y="-8"
     inkscape:window-maximized="1"
     inkscape:current-layer="Layer_1" />
  <defs
     id="defs4">
    <style
       id="style2">.cls-1{fill:#5c2d91;}.cls-2,.cls-3{fill:#fff;}.cls-2{opacity:0.1;}.cls-4{fill:#f2f2f2;}</style>
  </defs>
  <title
     id="title6">logo_NETcore</title>
  <circle
     class="cls-1"
     cx="32"
     cy="32"
     r="32"
     id="circle8" />
  <path
     class="cls-2"
     d="M9.82,9A32,32,0,1,0,55,54.18Z"
     id="path10" />
  <g
     id="g4545"
     transform="translate(0,3.9899162)">
    <path
       id="path12"
       d="m 7.4,37.25 a 1.35,1.35 0 0 1 -1,-0.42 1.38,1.38 0 0 1 -0.41,-1 1.4,1.4 0 0 1 0.41,-1 1.34,1.34 0 0 1 1,-0.43 1.37,1.37 0 0 1 1,0.43 1.39,1.39 0 0 1 0.42,1 1.37,1.37 0 0 1 -0.42,1 1.38,1.38 0 0 1 -1,0.42 z"
       class="cls-3"
       inkscape:connector-curvature="0"
       style="fill:#ffffff" />
    <path
       id="path14"
       d="M 27.27,37 H 24.65 L 15.28,22.46 A 6,6 0 0 1 14.7,21.32 h -0.08 a 18.72,18.72 0 0 1 0.1,2.5 V 37 H 12.59 V 18.77 h 2.77 l 9.12,14.28 q 0.57,0.89 0.74,1.22 h 0.05 A 19.28,19.28 0 0 1 25.14,31.59 V 18.77 h 2.13 z"
       class="cls-3"
       inkscape:connector-curvature="0"
       style="fill:#ffffff" />
    <path
       id="path16"
       d="M 41.69,37 H 32 V 18.77 h 9.24 v 1.93 h -7.06 v 6.06 h 6.58 v 1.92 H 34.18 V 35 h 7.52 z"
       class="cls-3"
       inkscape:connector-curvature="0"
       style="fill:#ffffff" />
    <path
       id="path18"
       d="M 56,20.7 H 50.7 V 37 H 48.57 V 20.7 H 43.33 V 18.77 H 56 Z"
       class="cls-3"
       inkscape:connector-curvature="0"
       style="fill:#ffffff" />
  </g>
</svg>
