<?xml version="1.0" encoding="UTF-8" standalone="no"?>
<!-- Generator: Adobe Illustrator 21.1.0, SVG Export Plug-In . SVG Version: 6.00 Build 0)  -->

<svg
   xmlns:dc="http://purl.org/dc/elements/1.1/"
   xmlns:cc="http://creativecommons.org/ns#"
   xmlns:rdf="http://www.w3.org/1999/02/22-rdf-syntax-ns#"
   xmlns:svg="http://www.w3.org/2000/svg"
   xmlns="http://www.w3.org/2000/svg"
   xmlns:sodipodi="http://sodipodi.sourceforge.net/DTD/sodipodi-0.dtd"
   xmlns:inkscape="http://www.inkscape.org/namespaces/inkscape"
   version="1.1"
   id="Layer_1"
   x="0px"
   y="0px"
   viewBox="0 0 141.8 42.34723"
   xml:space="preserve"
   sodipodi:docname="schneider-electric.svg"
   width="141.8"
   height="42.347229"
   inkscape:version="0.92+devel (c51823602c, 2017-11-04)"><metadata
   id="metadata983"><rdf:RDF><cc:Work
       rdf:about=""><dc:format>image/svg+xml</dc:format><dc:type
         rdf:resource="http://purl.org/dc/dcmitype/StillImage" /><dc:title></dc:title></cc:Work></rdf:RDF></metadata><defs
   id="defs981" /><sodipodi:namedview
   pagecolor="#ffffff"
   bordercolor="#666666"
   inkscape:document-rotation="0"
   borderopacity="1"
   objecttolerance="10"
   gridtolerance="10"
   guidetolerance="10"
   inkscape:pageopacity="0"
   inkscape:pageshadow="2"
   inkscape:window-width="1920"
   inkscape:window-height="1002"
   id="namedview979"
   showgrid="false"
   fit-margin-top="0"
   fit-margin-left="0"
   fit-margin-right="0"
   fit-margin-bottom="0"
   inkscape:zoom="2.6742819"
   inkscape:cx="41.264075"
   inkscape:cy="-13.669248"
   inkscape:window-x="0"
   inkscape:window-y="0"
   inkscape:window-maximized="1"
   inkscape:current-layer="Layer_1" />
<style
   type="text/css"
   id="style900">
	.st0{fill:#00953A;}
	.st1{fill:#FFFFFE;}
</style>
<g
   id="g964"
   transform="translate(-349.6,-276.1767)">
	<g
   id="g918">
		<polygon
   class="st0"
   points="413.9,307.1 419.3,307.1 419.3,308.8 413.9,308.8 413.9,312.9 419.6,312.9 419.6,314.6 412.1,314.6 412.1,301.5 419.5,301.5 419.5,303.2 413.9,303.2 "
   id="polygon902" />
		<polygon
   class="st0"
   points="425.4,314.6 423.7,314.6 423.7,301.5 425.4,301.5 "
   id="polygon904" />
		<path
   class="st0"
   d="m 432,310.5 h 6.1 c 0,-3.2 -1.5,-4.7 -3.7,-4.7 -2.4,0 -4,1.7 -4,4.4 0,2.4 1.5,4.6 4.2,4.6 1.4,0 2.4,-0.4 3.4,-1 V 312 c -1,0.7 -2,1 -3,1 -1.8,0.1 -2.8,-0.8 -3,-2.5 z m 2.3,-3.3 c 1.2,0 2,0.8 2,2.2 H 432 c 0.2,-1.4 1,-2.2 2.3,-2.2 z"
   id="path906"
   inkscape:connector-curvature="0" />
		<path
   class="st0"
   d="m 448.8,308.2 c -1,-0.7 -1.6,-0.9 -2.4,-0.9 -1.6,0 -2.6,1.2 -2.6,2.9 0,1.8 1.1,2.9 2.9,2.9 0.7,0 1.4,-0.2 2.3,-0.6 v 1.6 c -0.6,0.3 -1.7,0.5 -2.6,0.5 -2.6,0 -4.4,-1.8 -4.4,-4.3 0,-2.8 1.6,-4.6 4.2,-4.6 1,0 1.7,0.2 2.5,0.6 v 1.9 z"
   id="path908"
   inkscape:connector-curvature="0" />
		<path
   class="st0"
   d="m 456.4,305.9 h 2.7 v 1.5 h -2.7 v 4.4 c 0,1 0.7,1.3 1.2,1.3 0.6,0 1.2,-0.2 1.9,-0.6 v 1.6 c -0.6,0.3 -1.5,0.6 -2.1,0.6 -1.8,0 -2.8,-1.2 -2.8,-2.7 v -4.5 h -1.5 v -0.2 l 3.2,-3.1 v 1.7 z"
   id="path910"
   inkscape:connector-curvature="0" />
		<path
   class="st0"
   d="m 465.3,305.9 v 2 0 c 0.9,-1.5 1.7,-2.2 2.5,-2.2 0.7,0 1.3,0.3 2.1,1 l -0.9,1.5 c -0.5,-0.5 -1.2,-0.8 -1.6,-0.8 -1.2,0 -2.1,1.2 -2.1,2.6 v 4.5 h -1.7 v -8.6 z"
   id="path912"
   inkscape:connector-curvature="0" />
		<polygon
   class="st0"
   points="476.4,314.6 474.7,314.6 474.7,305.9 476.4,305.9 "
   id="polygon914" />
		<path
   class="st0"
   d="m 487.4,308.2 c -1,-0.7 -1.6,-0.9 -2.4,-0.9 -1.6,0 -2.6,1.2 -2.6,2.9 0,1.8 1.1,2.9 2.9,2.9 0.7,0 1.4,-0.2 2.3,-0.6 v 1.6 c -0.6,0.3 -1.7,0.5 -2.6,0.5 -2.6,0 -4.4,-1.8 -4.4,-4.3 0,-2.8 1.6,-4.6 4.2,-4.6 1,0 1.7,0.2 2.5,0.6 v 1.9 z"
   id="path916"
   inkscape:connector-curvature="0" />
	</g>
	<g
   id="g942">
		<g
   id="g938">
			<path
   class="st0"
   d="m 365.8,282.3 c -3.2,-1.4 -5.2,-1.9 -7.1,-1.9 -2,0 -3.3,0.7 -3.3,1.8 0,3.4 11.4,2.4 11.4,10.2 0,4.2 -3.6,6.8 -8.6,6.8 -4,0 -5.9,-1 -8.1,-2.2 v -4.8 c 3.2,2.2 5.1,2.9 7.6,2.9 2.2,0 3.3,-0.7 3.3,-2.1 0,-3.6 -11.4,-2.3 -11.4,-10.3 0,-3.9 3.4,-6.4 8.6,-6.4 2.5,0 4.8,0.5 7.6,1.7 z"
   id="path920"
   inkscape:connector-curvature="0" />
			<path
   class="st0"
   d="m 381.8,298.1 c -1.9,0.6 -3.5,1 -5.1,1 -5.3,0 -8.8,-3.1 -8.8,-7.8 0,-4.6 3.6,-7.8 8.6,-7.8 1.5,0 3.5,0.4 5.1,1 v 3.5 c -1.3,-0.6 -2.7,-1.1 -3.9,-1.1 -2.9,0 -4.7,1.7 -4.7,4.4 0,2.7 1.8,4.5 4.5,4.5 1.2,0 2.2,-0.3 4.2,-1.1 v 3.4 z"
   id="path922"
   inkscape:connector-curvature="0" />
			<path
   class="st0"
   d="m 394.1,296.2 v -6 c 0,-2.2 -0.9,-3.3 -2.4,-3.3 -1.1,0 -2,0.7 -3.2,2.3 v 9.6 h -4.8 v -22.3 h 4.8 v 9.4 h 0.1 c 1.4,-1.7 2.9,-2.5 4.8,-2.5 2.8,0 5.5,1.7 5.5,5.8 v 6.1 c -1.7,0 -3.6,0.6 -4.8,0.9 z"
   id="path924"
   inkscape:connector-curvature="0" />
			<path
   class="st0"
   d="m 401,295 c 0,-2.7 0,-11.3 0,-11.3 h 4.8 v 2.2 c 1.5,-1.7 3,-2.4 5,-2.4 2.4,0 5.5,1.4 5.5,5.8 v 9.6 h -4.8 v -9.2 c 0,-2.2 -1,-3 -2.4,-3 -1.2,0 -2,0.6 -3.3,2.5 0,0 0,4.2 0,6.6 -1.6,-0.5 -3.2,-0.7 -4.8,-0.8 z"
   id="path926"
   inkscape:connector-curvature="0" />
			<path
   class="st0"
   d="m 426.1,283.4 c -4.7,0 -8,3.3 -8,7.9 0,4.7 3.5,7.8 8.8,7.8 1.2,0 4,0 6.8,-2 v -3 c -2.2,1.6 -3.7,2.2 -5.6,2.2 -3,0 -4.8,-1.6 -5,-4.2 h 10.8 c 0.3,-5.6 -3.4,-8.7 -7.8,-8.7 z m -2.9,6.1 c 0.2,-2.1 1.4,-3.3 3.3,-3.3 1.8,0 3.1,1.3 3.2,3.3 z"
   id="path928"
   inkscape:connector-curvature="0" />
			<polygon
   class="st0"
   points="440.5,298.8 435.8,298.8 435.8,283.7 440.5,283.7 "
   id="polygon930" />
			<path
   class="st0"
   d="m 453.7,276.5 v 7.9 c -1.2,-0.6 -2.5,-0.9 -3.9,-0.9 -4.3,0 -7.3,3.2 -7.3,7.8 0,4.5 3,7.8 7.1,7.8 1.6,0 2.9,-0.4 4.2,-1.5 v 1.2 h 4.8 v -22.3 z m 0,18.2 c -0.9,0.9 -1.8,1.2 -2.8,1.2 -2.2,0 -3.7,-1.9 -3.7,-4.6 0,-3 1.4,-4.8 3.8,-4.8 0.9,0 2,0.4 2.7,0.9 z"
   id="path932"
   inkscape:connector-curvature="0" />
			<path
   class="st0"
   d="m 468.4,283.4 c -4.7,0 -8,3.3 -8,7.9 0,4.7 3.5,7.8 8.8,7.8 1.2,0 4,0 6.8,-2 v -3 c -2.2,1.6 -3.7,2.2 -5.6,2.2 -3,0 -4.8,-1.6 -5,-4.2 h 10.9 c 0.1,-5.6 -3.5,-8.7 -7.9,-8.7 z m -2.9,6.1 c 0.2,-2.1 1.4,-3.3 3.2,-3.3 1.9,0 3.1,1.3 3.3,3.3 z"
   id="path934"
   inkscape:connector-curvature="0" />
			<path
   class="st0"
   d="m 483.4,288 v 0 c 1.4,-3.2 3,-4.6 4.9,-4.6 0.9,0 1.7,0.4 3.1,1.4 L 490,289 c -1.2,-0.8 -2,-1.1 -2.8,-1.1 -1.7,0 -2.9,1.7 -3.9,4.4 v 6.6 h -4.8 v -15.1 h 4.8 v 4.2 z"
   id="path936"
   inkscape:connector-curvature="0" />
		</g>
		<path
   class="st0"
   d="m 440.7,277.3 c 0.4,1.2 -0.4,2.9 -1.8,3.7 -1.4,0.9 -3,0.6 -3.4,-0.6 -0.4,-1.2 0.4,-2.8 1.8,-3.7 1.5,-0.9 3,-0.6 3.4,0.6 z"
   id="path940"
   inkscape:connector-curvature="0" />
	</g>
	<path
   class="st0"
   d="m 476.5,302.9 c 0.2,0.4 -0.2,1 -0.7,1.3 -0.5,0.3 -1,0.2 -1.2,-0.2 -0.2,-0.4 0.1,-1 0.6,-1.3 0.6,-0.4 1.1,-0.3 1.3,0.2 z"
   id="path944"
   inkscape:connector-curvature="0" />
	<g
   id="g962">
		<path
   class="st0"
   d="m 389.7,301.8 c 5,-5.1 12,-6.8 15.7,-3.6 3.7,3.2 2.7,9.9 -2.3,15.1 -4.9,5.1 -12,6.8 -15.7,3.6 -3.6,-3.2 -2.6,-10 2.3,-15.1 z"
   id="path946"
   inkscape:connector-curvature="0" />
		<g
   id="g960">
			<path
   class="st0"
   d="m 393.3,314.1 h -5 l 0.8,-3 h 2.8 c 0.4,0 1,-0.3 1.1,-0.7 l 1.2,-5.4 c 0.5,-2.2 3.3,-4 5.5,-4 h 4.9 l -0.7,2.7 h -2.6 c -0.6,0 -0.8,0.1 -0.9,0.6 l -1.5,5.8 c -0.5,2.3 -3.3,4 -5.6,4 z"
   id="path948"
   inkscape:connector-curvature="0" />
			<path
   class="st1"
   d="m 386.9,305.7 c 0.4,-0.7 0.8,-1.3 1.2,-1.9 h 2.9 l -0.6,1.9 z"
   id="path950"
   inkscape:connector-curvature="0" />
			<path
   class="st1"
   d="m 385.5,309.4 c 0.1,-0.6 0.3,-1.3 0.6,-1.9 h 4 l -0.6,1.9 z"
   id="path952"
   inkscape:connector-curvature="0" />
			<path
   class="st1"
   d="m 406.2,309.1 c -0.3,0.7 -0.7,1.3 -1.2,1.9 h -3.8 l 0.6,-1.9 z"
   id="path954"
   inkscape:connector-curvature="0" />
			<path
   class="st1"
   d="m 407.5,305.4 c -0.1,0.6 -0.3,1.3 -0.5,1.9 h -4.8 l 0.6,-1.9 z"
   id="path956"
   inkscape:connector-curvature="0" />
			<path
   class="st1"
   d="m 393.3,314.1 h -5 l 0.8,-3 h 2.8 c 0.4,0 1,-0.3 1.1,-0.7 l 1.2,-5.4 c 0.5,-2.2 3.3,-4 5.5,-4 h 4.9 l -0.7,2.7 h -2.6 c -0.6,0 -0.8,0.1 -0.9,0.6 l -1.5,5.8 c -0.5,2.3 -3.3,4 -5.6,4 z"
   id="path958"
   inkscape:connector-curvature="0" />
		</g>
	</g>
</g>
<g
   id="g966"
   transform="translate(-349.6,-276.1767)">
</g>
<g
   id="g968"
   transform="translate(-349.6,-276.1767)">
</g>
<g
   id="g970"
   transform="translate(-349.6,-276.1767)">
</g>
<g
   id="g972"
   transform="translate(-349.6,-276.1767)">
</g>
<g
   id="g974"
   transform="translate(-349.6,-276.1767)">
</g>
<g
   id="g976"
   transform="translate(-349.6,-276.1767)">
</g>
</svg>