<?xml version="1.0" encoding="UTF-8" standalone="no"?>
<!-- Created with Inkscape (http://www.inkscape.org/) -->

<svg
   xmlns:dc="http://purl.org/dc/elements/1.1/"
   xmlns:cc="http://creativecommons.org/ns#"
   xmlns:rdf="http://www.w3.org/1999/02/22-rdf-syntax-ns#"
   xmlns:svg="http://www.w3.org/2000/svg"
   xmlns="http://www.w3.org/2000/svg"
   xmlns:sodipodi="http://sodipodi.sourceforge.net/DTD/sodipodi-0.dtd"
   xmlns:inkscape="http://www.inkscape.org/namespaces/inkscape"
   width="353.5155"
   height="71.726341"
   id="svg2"
   version="1.1"
   inkscape:version="0.92.4 (5da689c313, 2019-01-14)"
   sodipodi:docname="semiodesk-white.svg"
   inkscape:export-filename="C:\Users\Sebastian\Desktop\semiodesk.png"
   inkscape:export-xdpi="41.16"
   inkscape:export-ydpi="41.16">
  <defs
     id="defs4" />
  <sodipodi:namedview
     id="base"
     pagecolor="#ffffff"
     bordercolor="#666666"
     borderopacity="1.0"
     inkscape:pageopacity="0.0"
     inkscape:pageshadow="2"
     inkscape:zoom="1.979899"
     inkscape:cx="144.31186"
     inkscape:cy="76.244516"
     inkscape:document-units="px"
     inkscape:current-layer="layer1"
     showgrid="false"
     showguides="true"
     inkscape:guide-bbox="true"
     fit-margin-top="0"
     fit-margin-left="0"
     fit-margin-right="0"
     fit-margin-bottom="0"
     inkscape:window-width="1920"
     inkscape:window-height="1017"
     inkscape:window-x="-8"
     inkscape:window-y="-8"
     inkscape:window-maximized="1" />
  <metadata
     id="metadata7">
    <rdf:RDF>
      <cc:Work
         rdf:about="">
        <dc:format>image/svg+xml</dc:format>
        <dc:type
           rdf:resource="http://purl.org/dc/dcmitype/StillImage" />
        <dc:title />
      </cc:Work>
    </rdf:RDF>
  </metadata>
  <g
     inkscape:label="Ebene 1"
     inkscape:groupmode="layer"
     id="layer1"
     transform="translate(962.479,-87.944021)">
    <g
       transform="scale(1,-1)"
       style="font-style:normal;font-variant:normal;font-weight:normal;font-stretch:normal;font-size:79.12579346px;line-height:125%;font-family:'Source Sans Pro';-inkscape-font-specification:'Source Sans Pro';letter-spacing:0px;word-spacing:0px;fill:#ffffff;fill-opacity:1;stroke:none"
       id="text3794">
      <path
         d="m -962.479,-109.26723 c 3.63979,3.00678 8.86209,5.30143 14.32177,5.30143 9.09947,0 14.08439,-5.22231 14.08439,-11.47324 0,-7.27958 -6.17181,-9.57423 -11.71061,-11.6315 -4.35192,-1.66164 -8.54559,-3.00678 -8.54559,-6.64656 0,-2.92766 2.21552,-5.53881 7.0422,-5.53881 3.4024,0 6.17181,1.42427 8.78296,3.40241 l 3.0859,-4.11454 c -2.92765,-2.37377 -7.12132,-4.35192 -11.94799,-4.35192 -8.30821,0 -13.21401,4.74755 -13.21401,10.91936 0,6.48832 6.01356,9.09947 11.47324,11.07761 4.19367,1.58252 8.78297,3.32329 8.78297,7.27957 0,3.32329 -2.53203,6.01357 -7.59608,6.01357 -4.5893,0 -7.99171,-1.89902 -11.31499,-4.5893 l -3.24416,4.35192 z"
         style="fill:#ffffff"
         id="path4147" />
      <path
         d="m -927.82808,-124.06376 c 0,12.58101 8.14995,20.09796 18.43631,20.09796 5.2223,0 9.33684,-1.8199 12.66012,-3.95629 l -2.29464,-4.2728 c -2.84853,1.8199 -5.93444,3.00678 -9.57422,3.00678 -7.3587,0 -12.34363,-5.2223 -12.81838,-13.53051 l 25.95326,0 c 0.15825,-0.94951 0.23737,-2.21552 0.23737,-3.56066 0,-10.99848 -5.5388,-18.04068 -15.3504,-18.04068 -8.78296,0 -17.24942,7.6752 -17.24942,20.2562 z m 6.33006,-2.92765 c 0.79126,-7.75433 5.69706,-12.18537 11.07761,-12.18537 6.01356,0 9.4951,4.35192 9.4951,12.18537 l -20.57271,0 z"
         style="fill:#ffffff"
         id="path4149" />
      <path
         d="m -885.72574,-104.91531 6.48831,0 0,-27.85228 c 3.56066,-3.95629 6.80482,-5.93444 9.65335,-5.93444 4.9058,0 7.20045,3.08591 7.20045,10.28636 l 0,23.50036 6.48831,0 0,-27.85228 c 3.56066,-3.95629 6.64657,-5.93444 9.65335,-5.93444 4.82667,0 7.12132,3.08591 7.12132,10.28636 l 0,23.50036 6.48831,0 0,-24.37075 c 0,-9.8116 -3.79803,-15.0339 -11.71061,-15.0339 -4.66842,0 -8.62471,3.00678 -12.66013,7.3587 -1.58252,-4.5893 -4.74755,-7.3587 -10.60286,-7.3587 -4.58929,0 -8.62471,2.84853 -11.94799,6.48832 l -0.23738,0 -0.55388,-5.53881 -5.38055,0 0,38.45514 z"
         style="fill:#ffffff"
         id="path4151" />
      <path
         d="m -816.87642,-151.28303 c 2.53202,0 4.51017,-1.74077 4.51017,-4.19367 0,-2.53202 -1.97815,-4.19366 -4.51017,-4.19366 -2.53203,0 -4.51017,1.66164 -4.51017,4.19366 0,2.4529 1.97814,4.19367 4.51017,4.19367 z m -3.32328,46.36772 6.48831,0 0,-38.45514 -6.48831,0 0,38.45514 z"
         style="fill:#ffffff"
         id="path4153" />
      <path
         d="m -803.57587,-124.06376 c 0,12.73926 8.38734,20.09796 17.80331,20.09796 9.41597,0 17.8033,-7.3587 17.8033,-20.09796 0,-12.8975 -8.38733,-20.2562 -17.8033,-20.2562 -9.41597,0 -17.80331,7.3587 -17.80331,20.2562 z m 6.7257,0 c 0,-8.86208 4.51017,-14.87564 11.07761,-14.87564 6.64656,0 11.07761,6.01356 11.07761,14.87564 0,8.78297 -4.43105,14.7174 -11.07761,14.7174 -6.56744,0 -11.07761,-5.93443 -11.07761,-14.7174 z"
         style="fill:#ffffff"
         id="path4155" />
    </g>
    <g
       style="font-style:normal;font-variant:normal;font-weight:normal;font-stretch:normal;font-size:79.12579346px;line-height:125%;font-family:'Source Sans Pro';-inkscape-font-specification:'Source Sans Pro';letter-spacing:0px;word-spacing:0px;opacity:1;fill:#ffffff;fill-opacity:1;stroke:none"
       id="text3798">
      <path
         d="m -760.07027,125.13314 c 0,12.81838 6.25094,20.09796 15.90428,20.09796 4.51017,0 8.62471,-2.53203 11.63149,-5.45968 l 0.23738,0 0.55388,4.51017 5.38056,0 0,-56.337569 -6.56745,0 0,14.796519 0.31651,6.56744 c -3.40241,-2.7694 -6.33007,-4.43104 -10.76111,-4.43104 -8.78296,0 -16.69554,7.75433 -16.69554,20.2562 z m 6.72569,-0.0791 c 0,-8.78297 4.9058,-14.7174 11.07761,-14.7174 3.16503,0 6.09269,1.10776 9.33684,4.03542 l 0,20.09795 c -3.16503,3.56066 -6.25093,5.30143 -9.81159,5.30143 -6.7257,0 -10.60286,-5.53881 -10.60286,-14.7174 z"
         style="fill:#ffffff"
         id="path4138" />
      <path
         d="m -716.25931,125.13314 c 0,12.581 8.14996,20.09796 18.43631,20.09796 5.2223,0 9.33684,-1.8199 12.66013,-3.95629 l -2.29465,-4.2728 c -2.84853,1.8199 -5.93444,3.00678 -9.57422,3.00678 -7.3587,0 -12.34363,-5.2223 -12.81838,-13.53051 l 25.95326,0 c 0.15825,-0.94951 0.23738,-2.21552 0.23738,-3.56066 0,-10.99848 -5.53881,-18.04068 -15.35041,-18.04068 -8.78296,0 -17.24942,7.6752 -17.24942,20.2562 z m 6.33006,-2.92765 c 0.79126,-7.75433 5.69706,-12.18537 11.07761,-12.18537 6.01356,0 9.4951,4.35192 9.4951,12.18537 l -20.57271,0 z"
         style="fill:#ffffff"
         id="path4140" />
      <path
         d="m -678.42976,139.92967 c 3.63978,3.00678 8.86208,5.30143 14.32176,5.30143 9.09947,0 14.0844,-5.22231 14.0844,-11.47324 0,-7.27958 -6.17182,-9.57423 -11.71062,-11.6315 -4.35192,-1.66164 -8.54559,-3.00678 -8.54559,-6.64656 0,-2.92766 2.21552,-5.53881 7.0422,-5.53881 3.40241,0 6.17181,1.42427 8.78296,3.40241 l 3.08591,-4.11454 c -2.92766,-2.37377 -7.12132,-4.35192 -11.948,-4.35192 -8.30821,0 -13.21401,4.74755 -13.21401,10.91936 0,6.48832 6.01357,9.09947 11.47324,11.07761 4.19367,1.58252 8.78297,3.32328 8.78297,7.27957 0,3.32329 -2.53203,6.01356 -7.59608,6.01356 -4.58929,0 -7.9917,-1.89901 -11.31499,-4.58929 l -3.24415,4.35192 z"
         style="fill:#ffffff"
         id="path4142" />
      <path
         d="m -640.93033,144.28159 6.40919,0 0,-10.12811 7.20045,-8.38733 11.23586,18.51544 7.12133,0 -14.63828,-23.02561 12.89751,-15.42953 -7.20045,0 -16.37904,20.2562 -0.23738,0 0,-38.138629 -6.40919,0 0,56.337569 z"
         style="fill:#ffffff"
         id="path4144" />
    </g>
  </g>
</svg>
